<svg width="1em" height="1em" viewBox="0 0 24 24" xmlns="http://www.w3.org/2000/svg" class="w-5 h-5 pointer-events-none"><path d="M12.984 4.803l.6.746.876 1.058.834.999.523.641c1.27 1.585 2.243 2.633 2.557 4.315a5.655 5.655 0 01-.465 3.451c-.922 1.95-3 3.339-5.154 3.445-.09.004-.18.006-.268.006-2.083 0-4.118-1.176-5.123-2.967-1.338-2.348-1.037-5.129.748-6.943.638-.648.975-.64 1.013.023l.003.132.001.566.009.574.013.381.022.376c.102 1.426.44 2.665 1.557 2.852.682.114 1.407-.064 1.853-.818.295-.509.353-1.11.163-1.69l-.073-.193-.09-.195-.115-.236-.218-.431-.275-.522-.33-.614c-.775-1.43-.908-3.343.206-4.925a.707.707 0 011.133-.03z" fill="currentcolor" fill-rule="evenodd"></path></svg>