<?xml version="1.0" encoding="UTF-8"?>
<svg version="1.1" xmlns="http://www.w3.org/2000/svg" width="1278" height="636">
<path d="M0 0 C421.74 0 843.48 0 1278 0 C1278 209.88 1278 419.76 1278 636 C856.26 636 434.52 636 0 636 C0 426.12 0 216.24 0 0 Z M565.375 116 C563.47616554 120.14291155 563.42249413 122.45214127 564 127 C565.66526294 129.82370673 566.99709803 130.68004433 570.09375 131.66796875 C572.55454473 132.14782372 574.51220671 132.32757421 577 132 C580.88041268 128.83231618 581.7862587 127.3536949 582.5625 122.4375 C581.87778733 118.25314479 581.35684037 116.63751743 578 114 C573.16850777 113.01283464 569.36119462 112.96289934 565.375 116 Z M584.4375 372 C582.45122293 376.14527389 582.41800458 378.41678604 583 383 C584.87015094 385.43119623 586.28138345 386.64069173 589 388 C593.33327174 388.49055907 595.32000344 388.47744439 598.9375 385.9375 C601.5243831 382.25315134 601.63151199 380.42058395 601 376 C599.25271222 372.27196535 599.25271222 372.27196535 596 370 C591.47309714 369.38825637 588.12432771 369.12247593 584.4375 372 Z M89.59375 497.96484375 C85.83892691 502.75960559 85.39920396 506.78761186 85.48046875 512.80859375 C86.35037475 518.15230203 89.14324738 522.2608313 93 526 C95.12441727 526.8151899 95.12441727 526.8151899 97 527 C97 527.66 97 528.32 97 529 C97.53890869 529.22139648 98.07781738 529.44279297 98.63305664 529.67089844 C101.11157955 530.69238896 103.58702854 531.72113787 106.0625 532.75 C107.33383789 533.27207031 107.33383789 533.27207031 108.63085938 533.8046875 C122.23219051 539.47628504 122.23219051 539.47628504 124.0078125 543 C124.06582031 543.99 124.06582031 543.99 124.125 545 C124.18945312 545.66 124.25390625 546.32 124.3203125 547 C123.8594563 549.87754116 123.18222077 551.03729256 121 553 C118.23281416 553.41040052 115.94568158 553.56001483 113.1875 553.5 C112.13852539 553.52320313 112.13852539 553.52320313 111.06835938 553.546875 C105.06638366 553.50195844 101.52668386 551.35823827 97.125 547.25 C93.7145331 545.243843 90.91463838 545.68430336 87 546 C84.66806645 547.96775503 84.66806645 547.96775503 84.25 551.5625 C84.37568063 555.8749165 86.21414903 557.8065868 89.25 560.75 C95.83946146 566.15410508 104.08093171 569.86873071 112.80078125 569.3203125 C124.62132802 567.71389393 124.62132802 567.71389393 134 561 C134.48210937 560.54238281 134.96421875 560.08476563 135.4609375 559.61328125 C139.82899923 554.8228931 139.67376438 549.62429453 139.40234375 543.375 C138.6976521 537.46380018 137.34555258 533.97842261 132.75390625 530.10546875 C130.22997346 528.2807076 127.65894979 526.62029753 125 525 C123.3603125 523.948125 123.3603125 523.948125 121.6875 522.875 C116.40916458 519.95668955 109.07118954 516 103 516 C101.819067 512.457201 101.72971626 509.71640139 102 506 C106.89046366 502.73969089 112.0476826 503.86984551 117.75 504.25 C121.46905216 505.10824281 123.08738033 506.61015822 126 509 C129.24164524 509.92618435 131.11825742 510.30980145 134.3125 509.1875 C136.15097822 508.09312675 136.15097822 508.09312675 137 506 C137.40562581 502.34936767 137.32903202 500.53151326 135.375 497.375 C128.6278887 490.6278887 121.86648288 488.93726981 112.625 488.6875 C102.73272425 488.90478698 96.462086 490.66019952 89.59375 497.96484375 Z M161.45678711 490.83911133 C158.88273563 494.65726612 158.86143783 497.82639985 158.82299805 502.31982422 C158.81016281 503.6248288 158.79732758 504.92983337 158.78410339 506.27438354 C158.77593646 507.70114767 158.76849264 509.12791608 158.76171875 510.5546875 C158.75764322 511.27384464 158.7535677 511.99300179 158.74936867 512.73395157 C158.72852816 516.53926555 158.71421685 520.34454368 158.70483398 524.14990234 C158.69376384 528.07645198 158.65935202 532.00243581 158.61966228 535.92878532 C158.59350073 538.95200646 158.58514269 541.97509252 158.58155251 544.9984169 C158.57668656 546.44568841 158.56507218 547.89295389 158.54651451 549.34011459 C158.5221341 551.36706613 158.52550679 553.39429361 158.5300293 555.42138672 C158.52416306 556.57371796 158.51829681 557.72604919 158.51225281 558.91329956 C159.10446591 562.66111087 160.37878659 564.30910463 163 567 C165.32850367 568.16425183 166.71654379 568.13859876 169.31030273 568.16113281 C170.20140244 568.17074036 171.09250214 568.1803479 172.01060486 568.19024658 C173.45748436 568.1966214 173.45748436 568.1966214 174.93359375 568.203125 C175.92247086 568.20882507 176.91134796 568.21452515 177.93019104 568.22039795 C180.02416918 568.22985377 182.11816225 568.23638423 184.2121582 568.24023438 C187.42099828 568.24995004 190.6292007 568.28097223 193.83789062 568.3125 C195.86978785 568.31902889 197.90168967 568.32427981 199.93359375 568.328125 C200.89615585 568.3404718 201.85871796 568.3528186 202.85044861 568.36553955 C204.1918264 568.3610379 204.1918264 568.3610379 205.56030273 568.35644531 C206.34702866 568.36009094 207.13375458 568.36373657 207.94432068 568.36749268 C210.56060761 567.89978048 211.43643726 567.1240173 213 565 C213.380441 561.51262414 213.47963393 559.02063363 211.97338867 555.81542969 C209.00350639 553.08327026 205.88946628 553.39691265 202.05078125 553.390625 C201.27816452 553.37408875 200.50554779 553.35755249 199.70951843 553.34051514 C197.24376538 553.29196142 194.77862928 553.27064912 192.3125 553.25 C190.63994279 553.22184628 188.96741442 553.19191969 187.29492188 553.16015625 C183.19632888 553.08286268 179.09969609 553.04241796 175 553 C175 547.72 175 542.44 175 537 C183.91 536.67 192.82 536.34 202 536 C202 535.34 202 534.68 202 534 C202.66 534 203.32 534 204 534 C204 533.34 204 532.68 204 532 C204.66 532 205.32 532 206 532 C206.21409976 528.85987022 206.343478 526.66082665 204.87353516 523.83276367 C202.24138851 521.25789725 200.47522151 521.47363178 196.8359375 521.42578125 C195.63195312 521.39806641 194.42796875 521.37035156 193.1875 521.34179688 C191.3003125 521.32729492 191.3003125 521.32729492 189.375 521.3125 C186.88274764 521.27062407 184.39055073 521.22524916 181.8984375 521.17578125 C180.79161621 521.16458252 179.68479492 521.15338379 178.54443359 521.1418457 C176 521 176 521 175 520 C174.90024968 517.48863896 174.86117817 515.01096585 174.875 512.5 C174.87113281 511.79746094 174.86726562 511.09492188 174.86328125 510.37109375 C174.87338622 505.12661378 174.87338622 505.12661378 176 504 C178.3048207 503.86536908 180.61351442 503.79627851 182.921875 503.75390625 C184.35417236 503.72094955 185.78646388 503.68773823 187.21875 503.65429688 C189.48107618 503.60700171 191.74338184 503.56261532 194.00585938 503.52319336 C196.1864598 503.4832985 198.36655589 503.43177719 200.546875 503.37890625 C201.85495117 503.3538501 203.16302734 503.32879395 204.51074219 503.30297852 C207.78050249 503.01905936 210.0627472 502.40975443 213 501 C213.50398407 495.73672544 213.50398407 495.73672544 211.6875 491.0625 C208.74163241 489.20769448 206.16527329 488.86777788 202.77563477 488.82299805 C201.5040023 488.80374519 201.5040023 488.80374519 200.2066803 488.78410339 C198.83786964 488.77302299 198.83786964 488.77302299 197.44140625 488.76171875 C196.50070786 488.753647 195.56000946 488.74557526 194.59080505 488.73725891 C192.60116412 488.72343158 190.61149959 488.71270338 188.62182617 488.70483398 C185.57750803 488.68758503 182.53426594 488.64368295 179.49023438 488.59960938 C177.55729965 488.58948531 175.6243557 488.58096832 173.69140625 488.57421875 C172.78089005 488.55671066 171.87037384 488.53920258 170.93226624 488.52116394 C165.8484428 488.49788406 165.8484428 488.49788406 161.45678711 490.83911133 Z M249 493 C249 493.66 249 494.32 249 495 C248.41089844 495.11214844 247.82179687 495.22429687 247.21484375 495.33984375 C241.28535968 497.10718556 237.09905563 502.56398551 234.1328125 507.75 C229.67343761 516.60724116 228.24303417 524.08498859 229 534 C229.07154297 535.28197266 229.07154297 535.28197266 229.14453125 536.58984375 C230.35483246 546.54658838 238.11414222 556.46962363 245.765625 562.63671875 C254.8420424 568.17460279 267.81046591 570.89740483 278.29296875 568.46875 C287.88664247 565.50425422 287.88664247 565.50425422 295 559 C295.46155369 555.38449608 295.45406883 553.66363906 293.375 550.625 C290.23168392 548.47431005 288.75674052 548.41070737 285 549 C284.030625 549.66 283.06125 550.32 282.0625 551 C275.8016309 554.9182722 267.26738076 553.62971378 260.2734375 552.59765625 C254.16400211 550.99156757 250.43445229 547.19449017 247 542 C244.86887281 537.83686782 244.73115391 534.27056216 244.75 529.625 C244.74484375 528.35914063 244.7396875 527.09328125 244.734375 525.7890625 C245.23471334 518.65188329 246.98464099 514.12934444 252 509 C259.44598114 502.90783361 267.74081555 502.6520557 277 503 C277 503.66 277 504.32 277 505 C282.49260525 507.40903739 285.99430792 508.64862136 292 507 C294.04451019 505.95625978 294.04451019 505.95625978 295 504 C295.66680368 501.04279372 295.66680368 501.04279372 295 498 C289.40348693 491.86188889 280.44143647 489.29384775 272.3984375 488.76171875 C263.81701195 488.53208695 256.90596392 489.24801712 249 493 Z M366.81323242 489.42675781 C364.0490509 493.34953595 364.41601421 497.04279304 364.42578125 501.734375 C364.40453438 503.1623642 364.40453438 503.1623642 364.38285828 504.61920166 C364.34095217 507.66291516 364.32573252 510.7060388 364.3125 513.75 C364.28332478 516.77940096 364.2485934 519.8086565 364.21000671 522.83795166 C364.18775404 524.72114502 364.17179368 526.60442689 364.16316223 528.48773193 C364.03745777 543.98798346 364.03745777 543.98798346 360 549 C355.40433834 552.70950269 351.77950201 553.63036471 346 553.5 C344.97132813 553.52320313 344.97132813 553.52320313 343.921875 553.546875 C338.791381 553.50771092 335.80259629 552.41369439 332 549 C327.65152236 542.86353884 327.45020348 536.91649213 327.53125 529.60546875 C327.52420044 528.53629715 327.51715088 527.46712555 327.5098877 526.36555481 C327.48793991 522.97262268 327.49084605 519.58048204 327.5 516.1875 C327.51200929 511.70139648 327.49846128 507.21646821 327.46875 502.73046875 C327.48006958 501.69923386 327.49138916 500.66799896 327.50305176 499.60551453 C327.4962439 498.65054581 327.48943604 497.69557709 327.48242188 496.71166992 C327.48560425 495.87198166 327.48878662 495.0322934 327.49206543 494.16716003 C327.17310713 491.84141922 327.17310713 491.84141922 325.15734863 490.23286438 C322.20276087 488.54440014 320.35080688 488.51134066 317 489 C314.49173284 490.99379776 313.17218589 492.21365421 312.47860718 495.38111877 C312.4693924 496.26283249 312.46017761 497.1445462 312.45068359 498.05297852 C312.43161957 499.05825089 312.41255554 500.06352325 312.39291382 501.09925842 C312.39473663 502.18154221 312.39655945 503.26382599 312.3984375 504.37890625 C312.38986725 505.50135239 312.381297 506.62379852 312.37246704 507.78025818 C312.36097892 510.15824692 312.35998113 512.53630596 312.36865234 514.91430664 C312.37493562 518.52550051 312.32819639 522.13335658 312.27734375 525.74414062 C312.27279353 528.05989173 312.27139274 530.37565158 312.2734375 532.69140625 C312.25501801 533.75952042 312.23659851 534.82763458 312.21762085 535.92811584 C312.33568831 545.66476776 315.89627001 553.00222841 322.625 560 C328.98337248 565.97030279 335.16062646 568.53167353 343.875 569.375 C353.18162895 568.94169541 362.89483568 566.30562889 369.4921875 559.44921875 C370.70580624 558.0022118 371.85642917 556.50297881 373 555 C373.50582611 554.53784592 374.01165222 554.07569183 374.5328064 553.59953308 C379.89842189 547.74994414 379.44330045 537.90149209 379.3984375 530.48046875 C379.40130768 529.41887039 379.40417786 528.35727203 379.40713501 527.26350403 C379.40916309 525.0373989 379.40372191 522.81127543 379.39111328 520.58520508 C379.37496181 517.17944781 379.39104638 513.77486279 379.41015625 510.36914062 C379.40817516 508.19791406 379.40433426 506.02668821 379.3984375 503.85546875 C379.40451019 502.84083054 379.41058289 501.82619232 379.4168396 500.7808075 C379.43499672 493.84544066 379.43499672 493.84544066 376 488 C372.23136079 487.38331358 370.05292502 487.31301844 366.81323242 489.42675781 Z M399.60058594 490.71191406 C396.6126871 494.98320569 396.86211908 499.68300125 396.80712891 504.76220703 C396.79895142 505.42136108 396.79077393 506.08051514 396.78234863 506.75964355 C396.75767322 508.92569089 396.74103347 511.09167398 396.7265625 513.2578125 C396.72123882 513.99969692 396.71591515 514.74158134 396.71043015 515.50594711 C396.68378856 519.42566644 396.66437696 523.34535476 396.64990234 527.26513672 C396.63651586 530.50891014 396.60856596 533.7520615 396.56787109 536.99560547 C396.51867333 540.91772253 396.49379946 544.83927196 396.48667526 548.76168442 C396.47995059 550.2552906 396.46469673 551.74888349 396.44078445 553.24231339 C396.40927176 555.32774956 396.40907177 557.41097176 396.41650391 559.49658203 C396.40841705 560.68285187 396.4003302 561.8691217 396.39199829 563.09133911 C396.72154002 566.17262728 396.72154002 566.17262728 399.30599976 567.91818237 C402.91303581 569.36664371 405.2683771 568.91530373 409 568 C411.43835668 566.00896808 411.43835668 566.00896808 411.1953125 562.0859375 C411.18200376 560.51550649 411.15813602 558.94513779 411.125 557.375 C411.11597656 556.57320312 411.10695313 555.77140625 411.09765625 554.9453125 C411.07406223 552.96341477 411.03819065 550.98167019 411 549 C415.14554968 547.61815011 418.67734007 547.18200889 423 548 C429.56573407 551.65179876 433.8171317 558.45514628 438.1171875 564.42578125 C439.902434 567.00462973 439.902434 567.00462973 442 569 C446.05261287 569.34490322 447.54754176 569.30163882 451 567 C451.61611847 565.14188086 451.61611847 565.14188086 451.75 563.0625 C451.82734375 562.37285156 451.9046875 561.68320312 451.984375 560.97265625 C452.10814587 558.78488438 452.10814587 558.78488438 451 556 C450.34 556 449.68 556 449 556 C448.7525 555.443125 448.505 554.88625 448.25 554.3125 C447.03305996 551.84587301 447.03305996 551.84587301 444.8125 549.5625 C443 547 443 547 442.9375 544.5 C444.32559811 541.23388679 446.44444974 539.43088927 449 537 C450.29519995 534.83379456 450.29519995 534.83379456 451 533 C451.66 533 452.32 533 453 533 C455.832467 522.79031668 457.72311488 513.62389775 452.37890625 503.9609375 C449.74053195 500.20891512 446.55592386 496.89399864 443 494 C442.34 494 441.68 494 441 494 C441 493.34 441 492.68 441 492 C438.69 491.67 436.38 491.34 434 491 C434 490.34 434 489.68 434 489 C429.51601216 488.90096527 425.03260708 488.82845517 420.54785156 488.78027344 C419.02299915 488.76018401 417.49822352 488.73290684 415.97363281 488.69824219 C413.77910402 488.64960204 411.58559531 488.62700604 409.390625 488.609375 C408.07094727 488.58842773 406.75126953 488.56748047 405.39160156 488.54589844 C401.97735247 488.73395575 401.97735247 488.73395575 399.60058594 490.71191406 Z M476 493 C475.40710789 496.24420807 475.40710789 496.24420807 475.51416016 499.92407227 C475.51036346 500.612341 475.50656677 501.30060974 475.50265503 502.00973511 C475.49526046 504.27909278 475.51661237 506.54716289 475.5390625 508.81640625 C475.54144746 510.39533844 475.54235214 511.97427349 475.5418396 513.5532074 C475.54496558 516.85946461 475.56151618 520.16528756 475.58837891 523.47143555 C475.62238649 527.71077673 475.63000659 531.94964151 475.62848854 536.18910313 C475.62903215 539.44818169 475.63999743 542.70715598 475.65449142 545.96619987 C475.66085792 547.52951201 475.66479798 549.09283596 475.66627884 550.65616035 C475.67061195 552.83941949 475.68811161 555.02217191 475.70947266 557.20532227 C475.71709625 558.44790298 475.72471985 559.6904837 475.73257446 560.97071838 C475.77169791 564.17687764 475.77169791 564.17687764 478 567 C480.79074163 567.93024721 482.52083275 568.13588179 485.40795898 568.16113281 C486.29575546 568.17074036 487.18355194 568.1803479 488.09825134 568.19024658 C489.05453934 568.19449646 490.01082733 568.19874634 490.99609375 568.203125 C491.98118423 568.20882507 492.96627472 568.21452515 493.98121643 568.22039795 C496.06502204 568.22984434 498.14884256 568.2363805 500.23266602 568.24023438 C503.42165081 568.24995171 506.60999428 568.28098346 509.79882812 568.3125 C511.82291284 568.31902901 513.84700216 568.32427988 515.87109375 568.328125 C517.3024894 568.3466452 517.3024894 568.3466452 518.76280212 568.36553955 C520.09922508 568.3610379 520.09922508 568.3610379 521.46264648 568.35644531 C522.63488014 568.36191376 522.63488014 568.36191376 523.83079529 568.36749268 C526.59882048 567.8985517 527.97560042 566.91985229 530 565 C530.63977969 561.3212668 530.33573034 559.57100428 528.43994141 556.34667969 C525.24400946 553.27290563 522.67673081 553.28523575 518.4609375 553.328125 C517.73887115 553.31537537 517.01680481 553.30262573 516.27285767 553.28948975 C513.97317051 553.25323699 511.67494755 553.25048116 509.375 553.25 C507.06845731 553.22838517 504.76213582 553.19993512 502.45571899 553.16766357 C501.02234244 553.14990397 499.58885001 553.13961891 498.15536499 553.13751221 C493.21696809 553.10848404 493.21696809 553.10848404 491 552 C491 546.72 491 541.44 491 536 C492.90265625 536.04640625 494.8053125 536.0928125 496.765625 536.140625 C499.26040099 536.17814043 501.75519393 536.21454083 504.25 536.25 C505.50425781 536.28351562 506.75851562 536.31703125 508.05078125 536.3515625 C509.85869141 536.37089844 509.85869141 536.37089844 511.703125 536.390625 C512.81333008 536.41157227 513.92353516 536.43251953 515.06738281 536.45410156 C518.67415402 535.89561052 519.82495979 534.87968564 522 532 C522.48196845 528.69507352 522.42226492 526.80129946 520.86010742 523.83691406 C519.0915415 521.73489274 519.0915415 521.73489274 516.1809082 521.54589844 C515.06546631 521.5668457 513.95002441 521.58779297 512.80078125 521.609375 C511.59228516 521.62226562 510.38378906 521.63515625 509.13867188 521.6484375 C507.87603516 521.68195312 506.61339844 521.71546875 505.3125 521.75 C503.40114258 521.77707031 503.40114258 521.77707031 501.45117188 521.8046875 C498.30003159 521.85189559 495.1503886 521.91773616 492 522 C492 521.34 492 520.68 492 520 C491.34 520 490.68 520 490 520 C490.14024219 517.52039864 490.2869185 515.04147598 490.4375 512.5625 C490.49647461 511.50192383 490.49647461 511.50192383 490.55664062 510.41992188 C490.88671875 505.11328125 490.88671875 505.11328125 492 504 C494.55659273 503.87702465 497.09038594 503.81393192 499.6484375 503.7890625 C501.22657285 503.76099269 502.80469772 503.73232822 504.3828125 503.703125 C506.88020524 503.66184578 509.37740249 503.62497466 511.875 503.59863281 C514.27906149 503.57105458 516.68222191 503.52518178 519.0859375 503.4765625 C519.83289886 503.47330963 520.57986023 503.47005676 521.34945679 503.46670532 C525.38696341 503.37625823 525.38696341 503.37625823 528.96728516 501.68505859 C530.76067716 498.75881945 530.40777987 496.32049321 530 493 C528.6888964 490.60764203 528.6888964 490.60764203 526 489 C522.56510552 488.39703896 519.16752644 488.4397906 515.6875 488.46875 C514.17869263 488.46300964 514.17869263 488.46300964 512.6394043 488.45715332 C510.51447549 488.45443349 508.38951324 488.46179959 506.26464844 488.47851562 C503.01161068 488.49992359 499.76078155 488.47871568 496.5078125 488.453125 C494.44270346 488.45576826 492.37759579 488.46089321 490.3125 488.46875 C489.33949951 488.46065308 488.36649902 488.45255615 487.36401367 488.44421387 C486.45627197 488.45682251 485.54853027 488.46943115 484.61328125 488.48242188 C483.41892456 488.48719543 483.41892456 488.48719543 482.20043945 488.49206543 C479.03573907 489.22258347 477.89960155 490.38247798 476 493 Z M590.0625 495.3125 C585.10954719 500.93129788 583.31725862 505.67371402 583.51171875 513.17578125 C584.48322652 518.79498218 587.77542696 523.06858775 592.015625 526.75 C594.03218413 528.26649498 594.03218413 528.26649498 597 528 C597 528.66 597 529.32 597 530 C599.06049855 530.81756238 601.12348853 531.62884734 603.1875 532.4375 C604.33605469 532.88996094 605.48460937 533.34242188 606.66796875 533.80859375 C609.47123233 534.81093301 612.07112576 535.52012795 615 536 C615 536.66 615 537.32 615 538 C616.64333504 539.03789581 618.31243867 540.03567924 620 541 C622 543 622 543 622.3125 546.5 C622.209375 547.655 622.10625 548.81 622 550 C621.01 550.66 620.02 551.32 619 552 C619 552.66 619 553.32 619 554 C616.43663746 553.88553728 613.87486555 553.75880499 611.3125 553.625 C610.59126953 553.5940625 609.87003906 553.563125 609.12695312 553.53125 C605.02789606 553.30664413 601.75631541 552.82259091 598 551 C598 550.34 598 549.68 598 549 C595.56459702 546.36164677 593.41551125 545.71777603 589.9375 545.5 C585.95631245 545.57400923 585.95631245 545.57400923 584 548.1875 C582.94703565 551.14896224 582.64623486 552.89158362 583 556 C588.62105524 563.6690366 598.0621159 567.71153581 607.1875 569.40625 C615.59193521 569.82647176 624.89969766 567.17768445 631.30859375 561.71875 C635.81111737 557.14343731 638.27365842 553.14530401 638.6875 546.625 C638.33834746 540.32279659 636.19027136 535.69406353 632 531 C628.51393115 528.29370971 624.8632005 526.11998048 621 524 C620.17757812 523.484375 619.35515625 522.96875 618.5078125 522.4375 C615.87092576 520.92601352 613.3092262 519.92403181 610.4375 518.9375 C601.40989103 515.81978206 601.40989103 515.81978206 600 513 C599.54165672 507.61446646 599.54165672 507.61446646 601.25 505.32421875 C604.4507361 502.90223317 608.16045734 503.74959504 612 504 C613.19625 504.061875 614.3925 504.12375 615.625 504.1875 C618.90460326 504.97703412 619.97719169 505.60114711 622.5 507.625 C625.40553342 509.90089187 625.82664172 510.00284194 629.8125 509.9375 C633.06068786 509.2585469 633.06068786 509.2585469 635 507 C635.40383345 503.92076995 635.63782189 501.95562108 635 499 C629.71123992 493.18236392 621.97554016 489.35058007 614.1171875 488.796875 C605.10176711 488.66653157 596.90918416 488.85174584 590.0625 495.3125 Z M661 492 C660.47052261 492.39289215 659.94104523 492.7857843 659.39552307 493.19058228 C657.28929963 495.92148519 657.60388642 498.19771264 657.58007812 501.61108398 C657.56737381 502.6115979 657.56737381 502.6115979 657.55441284 503.63232422 C657.53101479 505.83710805 657.53002127 508.04119516 657.53125 510.24609375 C657.52414995 511.77922343 657.51645119 513.31235044 657.50817871 514.84547424 C657.49472743 518.05924871 657.49316788 521.27277751 657.49902344 524.48657227 C657.50491972 528.60400472 657.47433581 532.72025807 657.43390656 536.83746243 C657.40804932 540.00395553 657.40515027 543.170164 657.40879822 546.33674812 C657.40710502 547.85461452 657.3974431 549.37249379 657.37965393 550.89025688 C657.35750067 553.01414613 657.36714284 555.13564003 657.38476562 557.25952148 C657.38271118 558.46736801 657.38065674 559.67521454 657.37854004 560.91966248 C657.74926372 564.15469667 657.74926372 564.15469667 660.24876404 566.3899231 C663.05799192 568.033938 664.43467731 568.50102391 667.63500977 568.50170898 C668.96647789 568.51578041 668.96647789 568.51578041 670.32484436 568.53013611 C671.27080978 568.51890213 672.21677521 568.50766815 673.19140625 568.49609375 C674.66479713 568.4982766 674.66479713 568.4982766 676.16795349 568.50050354 C678.23984755 568.49884681 680.31175419 568.48731087 682.38354492 568.46655273 C685.55505581 568.43756803 688.72489765 568.44595483 691.89648438 568.45898438 C693.91146646 568.45274759 695.92644326 568.44435712 697.94140625 568.43359375 C698.8893959 568.43652939 699.83738556 568.43946503 700.81410217 568.44248962 C701.69859543 568.42980545 702.58308868 568.41712128 703.49438477 568.40405273 C704.65756981 568.39594826 704.65756981 568.39594826 705.84425354 568.38768005 C708.59174667 567.89358286 709.9836201 566.90664972 712 565 C712.63824045 561.33011743 712.33232558 559.57102204 710.45581055 556.34667969 C707.19398755 553.22980498 704.49617527 553.28600545 700.20703125 553.328125 C699.46039719 553.31537537 698.71376312 553.30262573 697.94450378 553.28948975 C695.56678098 553.25322686 693.19047491 553.25048093 690.8125 553.25 C688.42434106 553.22840941 686.03639744 553.20000259 683.64836121 553.16766357 C682.16382504 553.149854 680.6791758 553.13961284 679.1945343 553.13751221 C674.10851609 553.10851609 674.10851609 553.10851609 673 552 C672.90090698 549.66839945 672.87029496 547.33370058 672.875 545 C672.87242187 543.72125 672.86984375 542.4425 672.8671875 541.125 C673 538 673 538 674 537 C675.99782126 536.84174742 678.00088834 536.74880829 680.00390625 536.68359375 C681.21884766 536.64169922 682.43378906 536.59980469 683.68554688 536.55664062 C684.96494141 536.51732422 686.24433594 536.47800781 687.5625 536.4375 C689.48739258 536.37272461 689.48739258 536.37272461 691.45117188 536.30664062 C694.63399853 536.200152 697.81690674 536.09814038 701 536 C703.41312941 531.62903984 703.41312941 531.62903984 703.9375 526.75 C703.29079732 523.94871542 703.29079732 523.94871542 701.30541992 522.85180664 C698.50178205 521.81591841 696.16348213 521.6944825 693.17578125 521.62109375 C691.50999023 521.56985352 691.50999023 521.56985352 689.81054688 521.51757812 C688.65619141 521.49115234 687.50183594 521.46472656 686.3125 521.4375 C684.0168153 521.37785535 681.72122826 521.31427534 679.42578125 521.24609375 C677.90078003 521.21020142 677.90078003 521.21020142 676.3449707 521.17358398 C674 521 674 521 673 520 C672.90024968 517.48863896 672.86117817 515.01096585 672.875 512.5 C672.87113281 511.79746094 672.86726562 511.09492188 672.86328125 510.37109375 C672.87338622 505.12661378 672.87338622 505.12661378 674 504 C676.55659273 503.87702465 679.09038594 503.81393192 681.6484375 503.7890625 C683.22657285 503.76099269 684.80469772 503.73232822 686.3828125 503.703125 C688.88020524 503.66184578 691.37740249 503.62497466 693.875 503.59863281 C696.27906149 503.57105458 698.68222191 503.52518178 701.0859375 503.4765625 C701.83289886 503.47330963 702.57986023 503.47005676 703.34945679 503.46670532 C707.38696341 503.37625823 707.38696341 503.37625823 710.96728516 501.68505859 C712.76067716 498.75881945 712.40777987 496.32049321 712 493 C710.63044879 490.62384282 710.63044879 490.62384282 708 489 C704.86554759 488.4150989 701.77832753 488.46341115 698.59765625 488.50390625 C697.68294052 488.50245102 696.76822479 488.50099579 695.82579041 488.49949646 C693.89334933 488.50115469 691.96089495 488.51270755 690.02856445 488.53344727 C687.07641227 488.56236373 684.12606058 488.55406226 681.17382812 488.54101562 C679.29426213 488.54725451 677.4147018 488.55564662 675.53515625 488.56640625 C674.65481216 488.56347061 673.77446808 488.56053497 672.8674469 488.55751038 C668.07842558 488.63091059 664.8895903 488.91220922 661 492 Z M760 492 C758.55776672 495.03204083 758.55776672 495.03204083 757.390625 498.6796875 C754.88401415 505.78030566 752.07636219 512.71229474 749.109375 519.6328125 C748.67532349 520.64776794 748.24127197 521.66272339 747.79406738 522.70843506 C746.4488592 525.84850645 745.09986455 528.98692778 743.75 532.125 C742.38260835 535.30753893 741.01631254 538.49053139 739.65289307 541.67477417 C738.81167699 543.63912665 737.96817196 545.60250102 737.12200928 547.56472778 C732.88055079 556.45143873 732.88055079 556.45143873 732 566 C732.95548981 567.95625978 732.95548981 567.95625978 735 569 C739.26895306 569.63243749 741.22477759 569.56379811 744.75 567 C747.44684482 563.40420691 748.58245195 560.25264416 750 556 C751.7282114 554.2717886 753.94250374 554.87182288 756.24583435 554.86105347 C756.97810745 554.8630777 757.71038055 554.86510193 758.46484375 554.8671875 C759.21335098 554.86623077 759.96185822 554.86527405 760.73304749 554.86428833 C762.31934696 554.86360654 763.90564921 554.86546078 765.49194336 554.86962891 C767.92372909 554.87496976 770.35532949 554.8696878 772.78710938 554.86328125 C774.32552124 554.86394218 775.86393299 554.86522365 777.40234375 554.8671875 C778.13259262 554.86516327 778.86284149 554.86313904 779.61521912 554.86105347 C784.77008664 554.88504332 784.77008664 554.88504332 787 556 C788.05830252 558.48123029 788.92066642 561.00662675 789.8046875 563.5546875 C791.17111743 566.35006377 792.32236774 567.45347968 795 569 C798.54230809 569.58342353 798.54230809 569.58342353 802 569 C804.46360934 566.93374701 804.92460044 565.62626698 805.30639648 562.45507812 C804.87875531 557.63278503 803.0903798 553.75032725 801.16015625 549.34375 C800.75977646 548.40559448 800.35939667 547.46743896 799.94688416 546.50085449 C798.66217735 543.49612354 797.36290662 540.49796511 796.0625 537.5 C794.80282168 534.57054944 793.54623846 531.63979296 792.29086304 528.70849609 C791.45367717 526.75688679 790.61319995 524.8066861 789.7694397 522.85791016 C787.60700682 517.84581089 785.51744348 512.81811383 783.53857422 507.73046875 C783.14214218 506.72141479 782.74571014 505.71236084 782.33726501 504.67272949 C781.58667374 502.75083779 780.8493988 500.82367412 780.12770081 498.89074707 C778.14873338 493.77451192 778.14873338 493.77451192 774.36962891 489.91748047 C769.15953629 487.90022021 764.14099829 487.90857555 760 492 Z M825 494 C824.26080802 497.33656511 824.26080802 497.33656511 824.38476562 501.03759766 C824.37921661 501.72601242 824.3736676 502.41442719 824.36795044 503.123703 C824.3561867 505.38787534 824.38038694 507.65003177 824.40625 509.9140625 C824.40796171 511.49156605 824.40789481 513.06907244 824.40612793 514.64657593 C824.40777914 517.94695372 824.42644328 521.24665057 824.45800781 524.546875 C824.49775064 528.77846756 824.50204451 533.00917144 824.49454498 537.2409153 C824.49147727 540.49573926 824.50358751 543.75036313 824.52067566 547.0051384 C824.52770825 548.56565471 824.53082988 550.12619369 824.52998352 551.68672562 C824.53177957 553.86529908 824.55314035 556.04280276 824.58007812 558.22119141 C824.58849731 559.46075592 824.5969165 560.70032043 824.60559082 561.97744751 C824.74871609 564.98028598 824.74871609 564.98028598 826.39855957 566.89169312 C828.37778202 568.26145113 829.79990491 568.49179548 832.1875 568.6875 C833.445625 568.790625 834.70375 568.89375 836 569 C836.66 567.68 837.32 566.36 838 565 C838.66 565 839.32 565 840 565 C840.06058594 563.85660156 840.12117187 562.71320313 840.18359375 561.53515625 C840.26798428 560.04425695 840.35263302 558.55337225 840.4375 557.0625 C840.47681641 556.30775391 840.51613281 555.55300781 840.55664062 554.77539062 C840.88671875 549.11328125 840.88671875 549.11328125 842 548 C843.85546875 547.76171875 843.85546875 547.76171875 846.1875 547.6875 C847.32251953 547.63142578 847.32251953 547.63142578 848.48046875 547.57421875 C853.7686035 548.46787253 856.95421933 551.69970553 860.03515625 555.85546875 C861.57592069 558.02844363 863.08508476 560.22055299 864.58789062 562.41992188 C867.43826882 566.58683573 867.43826882 566.58683573 871.69921875 569.0390625 C874.55730523 568.99053811 876.47910622 568.33047172 879 567 C880.53214888 563.93570224 880.22938548 561.3834358 880 558 C878.77401355 555.09075658 878.77401355 555.09075658 877 553 C876.34 553 875.68 553 875 553 C872.80529632 549.04953338 872 545.51236303 872 541 C872.87591797 540.65195312 872.87591797 540.65195312 873.76953125 540.296875 C876.553874 538.67795767 877.8476548 536.88405169 879.6875 534.25 C880.28949219 533.40953125 880.89148438 532.5690625 881.51171875 531.703125 C885.20729078 524.99095742 884.98651632 515.72139318 883 508.4375 C880.38427767 501.51136199 875.22539994 495.86326307 868.6875 492.4375 C865.19377684 490.8183959 865.19377684 490.8183959 862 491 C862 490.34 862 489.68 862 489 C857.53435699 488.87602853 853.06963561 488.78549008 848.6027832 488.7253418 C847.08470199 488.70025891 845.56674082 488.6661834 844.04907227 488.62280273 C841.86184035 488.56186707 839.67620961 488.53373105 837.48828125 488.51171875 C836.17384033 488.48553467 834.85939941 488.45935059 833.50512695 488.43237305 C829.0185864 489.15893199 827.8100513 490.48120119 825 494 Z M926 492 C926 492.66 926 493.32 926 494 C925.154375 494.20625 924.30875 494.4125 923.4375 494.625 C914.34293096 498.26282761 910.17762938 505.63279527 905.9609375 514.08203125 C902.2769797 523.08534868 902.72980838 534.49242593 906 543.5 C906.64016487 545.01150038 907.29622614 546.51704794 908 548 C908.66 548 909.32 548 910 548 C910.10054687 548.5775 910.20109375 549.155 910.3046875 549.75 C911.91605261 554.96430507 916.69508032 559.48612884 921.3125 562.25 C922.52942349 562.85846174 923.75993285 563.4402126 925 564 C925.73992188 564.35964844 926.47984375 564.71929688 927.2421875 565.08984375 C936.75809373 569.36136076 947.03496109 570.34165966 957 567 C964.56299644 564.26275729 964.56299644 564.26275729 970 559 C970.38932198 555.4182378 970.43596718 553.63718279 968.375 550.625 C965.17206228 548.43351629 963.8552225 548.42885593 960 549 C958.51235631 549.64752971 957.03405304 550.31669179 955.5625 551 C948.40493717 554.02111956 939.78332642 554.75508518 932.40234375 552.046875 C926.3598822 548.47786968 922.75314002 543.38365433 920 537 C918.96203627 528.49991865 919.16270188 520.27973718 924 513 C928.69886604 507.12641745 934.59268897 504.08639028 942 503.1875 C946.47127691 502.88295482 950.58652937 503.26442156 955 504 C955 504.66 955 505.32 955 506 C961.03180672 507.96307963 961.03180672 507.96307963 967 506.6875 C969.76638168 504.57571469 969.76638168 504.57571469 970.375 501.1875 C970.3128343 497.82228258 970.3128343 497.82228258 967.625 495.625 C965.23112366 493.82454846 965.23112366 493.82454846 963 494 C963 493.34 963 492.68 963 492 C950.78803631 488.11437519 938.00847825 486.85350932 926 492 Z M990 493 C989.39988884 496.32533973 989.39988884 496.32533973 989.49829102 500.10766602 C989.49288803 500.81544189 989.48748505 501.52321777 989.48191833 502.25244141 C989.4694336 504.58669131 989.48591714 506.91970727 989.50390625 509.25390625 C989.50375127 510.87768112 989.50226248 512.50145636 989.49949646 514.12522888 C989.49811265 517.5256285 989.51066842 520.92560621 989.53344727 524.32592773 C989.56185481 528.68643451 989.55908838 533.04624152 989.54635715 537.40680027 C989.53940605 540.75853972 989.5471823 544.11011711 989.55961418 547.46183586 C989.56413265 549.06980709 989.56446203 550.67779569 989.56054878 552.28576851 C989.55764146 554.53145212 989.57411818 556.77616724 989.59594727 559.02172852 C989.60135025 560.29983902 989.60675323 561.57794952 989.61231995 562.89479065 C989.74182907 565.97268838 989.74182907 565.97268838 991.40415955 567.9249115 C993.4839426 569.32602327 994.54206148 569.23810455 997 568.875 C997.680625 568.78992188 998.36125 568.70484375 999.0625 568.6171875 C1001.55619221 567.82282587 1002.41879095 567.10271527 1004 565 C1004.50768043 561.9031714 1004.50768043 561.9031714 1004.51171875 558.36328125 C1004.54483154 557.19321533 1004.57794434 556.02314941 1004.61206055 554.81762695 C1004.64940308 552.58758911 1004.64940308 552.58758911 1004.6875 550.3125 C1004.790625 545.589375 1004.89375 540.86625 1005 536 C1016.88 536 1028.76 536 1041 536 C1042.0617481 539.18524429 1042.12519367 541.49407498 1042.140625 544.83984375 C1042.15996094 545.98517578 1042.17929688 547.13050781 1042.19921875 548.31054688 C1042.23301588 550.72444161 1042.25129779 553.13860446 1042.25390625 555.55273438 C1042.27839844 556.69935547 1042.30289062 557.84597656 1042.328125 559.02734375 C1042.34214355 560.60116821 1042.34214355 560.60116821 1042.35644531 562.20678711 C1043.21866472 565.94906795 1044.81507521 566.98313836 1048 569 C1050.54327108 569.66685938 1050.54327108 569.66685938 1053 569 C1056.02613761 566.73464405 1056.91402809 565.54707404 1057.50793457 561.76780701 C1057.51111694 560.48890091 1057.51429932 559.20999481 1057.51757812 557.89233398 C1057.5245874 557.18455811 1057.53159668 556.47678223 1057.53881836 555.74755859 C1057.55639161 553.41333526 1057.54478048 551.0803289 1057.53125 548.74609375 C1057.53394484 547.12231717 1057.53782719 545.49854217 1057.54284668 543.87477112 C1057.54874052 540.47438163 1057.54018172 537.07441282 1057.52148438 533.67407227 C1057.49867624 529.31344152 1057.51182968 524.95379451 1057.53577423 520.59319973 C1057.55022008 517.24144561 1057.54563222 513.88992525 1057.53526306 510.53816414 C1057.53259333 508.93018541 1057.5358742 507.3221855 1057.54518127 505.71423149 C1057.55532956 503.46833843 1057.53987377 501.22404519 1057.51757812 498.97827148 C1057.51439575 497.70016098 1057.51121338 496.42205048 1057.50793457 495.10520935 C1057.29302341 491.94044588 1057.29302341 491.94044588 1055.15515137 490.09120178 C1052.19255039 488.59117004 1050.27746173 488.52203683 1047 489 C1044.2167209 491.13462553 1043.12408765 492.32205484 1042.48583984 495.80908203 C1042.47351318 497.39245361 1042.47351318 497.39245361 1042.4609375 499.0078125 C1042.43773437 500.15894531 1042.41453125 501.31007813 1042.390625 502.49609375 C1042.38546875 503.69363281 1042.3803125 504.89117187 1042.375 506.125 C1042.34956996 508.50270919 1042.31613042 510.88035062 1042.2734375 513.2578125 C1042.26747559 514.3111377 1042.26151367 515.36446289 1042.25537109 516.44970703 C1042 519 1042 519 1040 521 C1037.41896694 521.17502995 1034.94691837 521.23162279 1032.3671875 521.1953125 C1031.23943405 521.19106766 1031.23943405 521.19106766 1030.08889771 521.18673706 C1027.68410422 521.17552874 1025.27968119 521.15042352 1022.875 521.125 C1021.24609912 521.11497102 1019.61719242 521.10584503 1017.98828125 521.09765625 C1013.99204444 521.07558735 1009.99608506 521.04105351 1006 521 C1004.63581862 518.27163725 1004.85523336 516.05471704 1004.82421875 513.00390625 C1004.80037109 511.80572266 1004.77652344 510.60753906 1004.75195312 509.37304688 C1004.70905333 506.83675883 1004.6777654 504.30024727 1004.65820312 501.76367188 C1004.63048828 500.56419922 1004.60277344 499.36472656 1004.57421875 498.12890625 C1004.55963623 497.02619385 1004.54505371 495.92348145 1004.5300293 494.78735352 C1004.25216939 491.90619062 1004.25216939 491.90619062 1002.15161133 490.14428711 C997.00508982 487.40722297 993.41032292 488.52982665 990 493 Z M1138.625 490.375 C1137.10010724 492.83828831 1136.5070279 494.53668264 1135.7734375 497.29296875 C1133.97853307 503.43838489 1131.44258574 509.19301671 1128.84432983 515.03561401 C1127.38676299 518.31884037 1125.95432993 521.61302554 1124.51953125 524.90625 C1124.22714066 525.57655746 1123.93475006 526.24686493 1123.63349915 526.93748474 C1120.59403471 533.91399292 1117.61072283 540.91138059 1114.6875 547.9375 C1114.21376953 549.04923584 1113.74003906 550.16097168 1113.25195312 551.30639648 C1110.99846066 556.76993321 1109.36724016 561.06893115 1110 567 C1113.39731629 569.09065618 1116.04269405 569.42098999 1120 569 C1121.92005135 567.74882038 1121.92005135 567.74882038 1123 566 C1123 565.34 1123 564.68 1123 564 C1123.66 564 1124.32 564 1125 564 C1125.20496094 563.43410156 1125.40992188 562.86820313 1125.62109375 562.28515625 C1125.89050781 561.55167969 1126.15992188 560.81820312 1126.4375 560.0625 C1126.70433594 559.33160156 1126.97117187 558.60070312 1127.24609375 557.84765625 C1128 556 1128 556 1129 555 C1131.48584036 554.87431786 1133.94241672 554.81137243 1136.4296875 554.796875 C1137.54889084 554.78832489 1137.54889084 554.78832489 1138.69070435 554.77960205 C1140.27279232 554.77013849 1141.85490012 554.7636127 1143.43701172 554.75976562 C1145.85809782 554.7500677 1148.2783324 554.71906177 1150.69921875 554.6875 C1152.23436994 554.6809694 1153.76952723 554.67571915 1155.3046875 554.671875 C1156.02977509 554.6595282 1156.75486267 554.6471814 1157.50192261 554.63446045 C1162.50368532 554.65662472 1162.50368532 554.65662472 1164.88720703 556.30566406 C1166.66495652 559.01246123 1167.74602999 562.02182122 1169 565 C1170.08786184 567.48135227 1170.08786184 567.48135227 1172 569 C1176.37855495 569.46913089 1178.29584707 569.46943529 1182 567 C1183.8860279 560.6579833 1182.05423997 556.47680046 1179.51171875 550.71875 C1179.13752808 549.83538971 1178.7633374 548.95202942 1178.37780762 548.04190063 C1177.16391896 545.18734701 1175.92652225 542.34372327 1174.6875 539.5 C1173.8500335 537.54856522 1173.01385351 535.59657784 1172.17895508 533.64404297 C1170.53963663 529.81706428 1168.89096702 525.9943361 1167.234375 522.17480469 C1165.37109476 517.87268109 1163.54908386 513.55590239 1161.75 509.2265625 C1160.89617225 507.19256603 1160.04204451 505.15869544 1159.1875 503.125 C1158.82293701 502.23748047 1158.45837402 501.34996094 1158.08276367 500.43554688 C1156.07056097 495.737415 1154.1351743 492.2198029 1150 489 C1145.96294817 487.90393702 1142.23791777 488.28331076 1138.625 490.375 Z M1204.31140137 490.08729553 C1202.31519664 492.99879906 1202.60314151 495.47703762 1202.58007812 498.97827148 C1202.57160858 499.68429504 1202.56313904 500.3903186 1202.55441284 501.11773682 C1202.53100742 503.4523722 1202.53002147 505.7863499 1202.53125 508.12109375 C1202.52415043 509.74390426 1202.51645174 511.36671226 1202.50817871 512.98951721 C1202.49472574 516.39160132 1202.49316868 519.79345336 1202.49902344 523.19555664 C1202.50491993 527.55509965 1202.47433518 531.91352913 1202.43390656 536.27285671 C1202.40805466 539.62463885 1202.40514981 542.976152 1202.40879822 546.3280201 C1202.40710454 547.9351996 1202.39743808 549.5423912 1202.37965393 551.14947319 C1202.35751189 553.39785091 1202.36713825 555.64396392 1202.38476562 557.89233398 C1202.38271118 559.17124008 1202.38065674 560.45014618 1202.37854004 561.76780701 C1202.72693242 565.15817496 1202.72693242 565.15817496 1205.34313965 567.44422913 C1207.93630519 569.26318164 1207.93630519 569.26318164 1211.125 569 C1214.52530195 567.81728628 1215.24653372 567.09625999 1217 564 C1217.46212481 560.70973835 1217.46212481 560.70973835 1217.40405273 556.98413086 C1217.41091599 556.28610855 1217.41777924 555.58808624 1217.42485046 554.86891174 C1217.44311559 552.56734745 1217.43928264 550.26646478 1217.43359375 547.96484375 C1217.43815482 546.36348753 1217.44346017 544.76213327 1217.44947815 543.16078186 C1217.45840797 539.80754636 1217.45598666 536.45454906 1217.44604492 533.10131836 C1217.43453898 528.80125273 1217.45479148 524.5020063 1217.48396206 520.2020483 C1217.50229166 516.89663971 1217.50203843 513.59142878 1217.49632454 510.28598213 C1217.49617101 508.70032156 1217.50224125 507.11464786 1217.51461601 505.52903557 C1217.52946886 503.31432209 1217.51889456 501.10113962 1217.50170898 498.88647461 C1217.50154282 497.626129 1217.50137665 496.36578339 1217.50120544 495.06724548 C1217.28581851 491.94351273 1217.28581851 491.94351273 1215.19129944 490.09303284 C1211.65528881 488.32925028 1207.74105544 487.87892731 1204.31140137 490.08729553 Z " fill="#2A183E" transform="translate(0,0)"/>
<path d="M0 0 C0.7031987 0.00707474 1.4063974 0.01414948 2.13090515 0.0214386 C4.36312102 0.04928913 6.59276952 0.11199805 8.82421875 0.17578125 C10.34306256 0.20087674 11.86194595 0.22368773 13.38085938 0.24414062 C17.09197123 0.29908118 20.80159416 0.38528386 24.51171875 0.48828125 C24.51171875 1.14828125 24.51171875 1.80828125 24.51171875 2.48828125 C25.33671875 2.52953125 26.16171875 2.57078125 27.01171875 2.61328125 C34.1886376 4.40751096 39.18215742 9.53797433 43.32421875 15.4921875 C47.45317605 22.43263876 47.24149676 30.32854661 45.88671875 38.05078125 C43.85323778 43.13448367 41.2099404 48.93752397 36.31640625 51.75 C35.72085938 51.99363281 35.1253125 52.23726562 34.51171875 52.48828125 C34.20272602 57.02017465 34.55959868 59.04414117 37.51171875 62.48828125 C37.51171875 63.14828125 37.51171875 63.80828125 37.51171875 64.48828125 C38.17171875 64.48828125 38.83171875 64.48828125 39.51171875 64.48828125 C42.61712573 68.42975934 43.06073985 71.54709132 42.51171875 76.48828125 C40.97781754 78.91023052 39.81763501 79.37557526 37.13671875 80.36328125 C33.56689591 80.53327281 32.39453178 79.61467104 29.51171875 77.48828125 C26.97491372 74.47725572 24.82884734 71.18994094 22.6171875 67.9375 C19.98251283 64.17473928 17.86649953 61.34669088 13.51171875 59.48828125 C11.1122239 59.09437109 11.1122239 59.09437109 8.76171875 59.23828125 C7.59382812 59.26148438 7.59382812 59.26148438 6.40234375 59.28515625 C4.50145973 59.28936518 4.50145973 59.28936518 3.51171875 60.48828125 C3.27493159 63.18063901 3.0897385 65.85326281 2.94921875 68.55078125 C2.90603516 69.30939453 2.86285156 70.06800781 2.81835938 70.84960938 C2.71198242 72.72893563 2.61131941 74.60858369 2.51171875 76.48828125 C1.85171875 76.48828125 1.19171875 76.48828125 0.51171875 76.48828125 C-0.14828125 77.80828125 -0.80828125 79.12828125 -1.48828125 80.48828125 C-8.92401076 79.87879522 -8.92401076 79.87879522 -11.08972168 78.37997437 C-13.18653568 75.54382159 -12.88445383 73.20610241 -12.90820312 69.70947266 C-12.91667267 69.02456253 -12.92514221 68.3396524 -12.93386841 67.63398743 C-12.95727327 65.3690841 -12.95825968 63.10485889 -12.95703125 60.83984375 C-12.9641317 59.26426928 -12.97183052 57.68869741 -12.98010254 56.11312866 C-12.99355598 52.80939551 -12.99511275 49.50590133 -12.98925781 46.20214844 C-12.98336626 41.97272596 -13.01392511 37.74445323 -13.05437469 33.51525307 C-13.08025506 30.26036423 -13.08312876 27.00575192 -13.07948303 23.75077438 C-13.08117456 22.19186899 -13.09082038 20.63295087 -13.10862732 19.07414627 C-13.13082215 16.89061432 -13.12111607 14.70940446 -13.10351562 12.52587891 C-13.10557007 11.28472321 -13.10762451 10.0435675 -13.10974121 8.76480103 C-11.6969586 1.31619538 -6.90271647 -0.13750431 0 0 Z M2.51171875 16.48828125 C2.41188817 18.47585153 2.38091122 20.46695645 2.37890625 22.45703125 C2.37761719 23.66746094 2.37632812 24.87789062 2.375 26.125 C2.37886719 27.39988281 2.38273438 28.67476562 2.38671875 29.98828125 C2.38285156 31.26316406 2.37898437 32.53804687 2.375 33.8515625 C2.37628906 35.06199219 2.37757813 36.27242187 2.37890625 37.51953125 C2.38003418 38.63908203 2.38116211 39.75863281 2.38232422 40.91210938 C2.21955507 43.41969927 2.21955507 43.41969927 3.51171875 44.48828125 C4.97650381 44.58711461 6.44594833 44.61907414 7.9140625 44.62109375 C8.80416016 44.62238281 9.69425781 44.62367188 10.61132812 44.625 C11.54783203 44.62113281 12.48433594 44.61726562 13.44921875 44.61328125 C14.38185547 44.61714844 15.31449219 44.62101563 16.27539062 44.625 C17.6124707 44.62306641 17.6124707 44.62306641 18.9765625 44.62109375 C20.20814087 44.61940186 20.20814087 44.61940186 21.46459961 44.61767578 C23.57787899 44.61765965 23.57787899 44.61765965 25.51171875 43.48828125 C25.51171875 42.82828125 25.51171875 42.16828125 25.51171875 41.48828125 C26.50171875 41.15828125 27.49171875 40.82828125 28.51171875 40.48828125 C31.17815357 38.20276569 32.36949724 36.41342511 32.90625 32.921875 C33.07312908 28.37905571 32.81717384 25.17250064 30.94921875 20.98828125 C26.88214802 16.81692666 22.63365336 15.34069866 16.92578125 15.16015625 C15.32924912 15.1706425 13.73274877 15.19689311 12.13671875 15.23828125 C10.90888672 15.24601562 10.90888672 15.24601562 9.65625 15.25390625 C5.77075447 14.94115762 5.77075447 14.94115762 2.51171875 16.48828125 Z " fill="#F5F5F6" transform="translate(837.48828125,488.51171875)"/>
<path d="M0 0 C1.05904289 0.00636726 1.05904289 0.00636726 2.13948059 0.01286316 C4.39155428 0.02963841 6.64272867 0.06728632 8.89453125 0.10546875 C10.4225131 0.12051718 11.95050901 0.13420531 13.47851562 0.14648438 C17.22169997 0.17953786 20.96421321 0.23131043 24.70703125 0.29296875 C24.70703125 0.95296875 24.70703125 1.61296875 24.70703125 2.29296875 C27.01703125 2.62296875 29.32703125 2.95296875 31.70703125 3.29296875 C31.70703125 3.95296875 31.70703125 4.61296875 31.70703125 5.29296875 C32.28195312 5.53402344 32.856875 5.77507812 33.44921875 6.0234375 C36.14317926 7.53820768 37.78740668 9.29263297 39.83203125 11.60546875 C40.85683594 12.74435547 40.85683594 12.74435547 41.90234375 13.90625 C45.85078481 19.12810603 46.81050655 24.86025457 46.70703125 31.29296875 C45.94852086 35.69816369 44.90160445 39.98710604 43.70703125 44.29296875 C43.04703125 44.29296875 42.38703125 44.29296875 41.70703125 44.29296875 C41.48015625 44.84984375 41.25328125 45.40671875 41.01953125 45.98046875 C39.70703125 48.29296875 39.70703125 48.29296875 37.14453125 50.73046875 C34.66562165 53.08641468 34.66562165 53.08641468 33.51953125 55.66796875 C33.78816636 59.42886025 35.79229205 61.10493371 38.359375 63.7421875 C39.70703125 65.29296875 39.70703125 65.29296875 39.70703125 67.29296875 C40.36703125 67.29296875 41.02703125 67.29296875 41.70703125 67.29296875 C42.92925347 74.62630208 42.92925347 74.62630208 41.89453125 77.73046875 C40.16789804 80.00235455 38.8044139 80.27258633 36.01953125 80.85546875 C30.80470258 79.96993181 28.79521333 76.3634484 25.70703125 72.29296875 C20.53731093 64.89205346 20.53731093 64.89205346 13.70703125 59.29296875 C9.45089619 58.77981771 5.77791795 58.93600652 1.70703125 60.29296875 C1.79404297 62.08154297 1.79404297 62.08154297 1.8828125 63.90625 C1.92970972 65.47261716 1.97520993 67.03902659 2.01953125 68.60546875 C2.06142578 69.39115234 2.10332031 70.17683594 2.14648438 70.98632812 C2.19340514 73.19160385 2.17577522 75.13646068 1.70703125 77.29296875 C-1.22896986 79.88849242 -2.50299947 80.34036691 -6.41796875 80.10546875 C-9.29296875 79.29296875 -9.29296875 79.29296875 -12.29296875 77.29296875 C-12.66719055 74.5112915 -12.66719055 74.5112915 -12.6652832 70.91894531 C-12.66893387 70.26504822 -12.67258453 69.61115112 -12.67634583 68.93743896 C-12.68447074 66.76922865 -12.67082028 64.60176157 -12.65625 62.43359375 C-12.65573137 60.92624919 -12.65624918 59.41890395 -12.65776062 57.91156006 C-12.65767079 54.74725282 -12.64722523 51.5831998 -12.62915039 48.41894531 C-12.60654037 44.37266401 -12.60590391 40.32675682 -12.61266804 36.28042984 C-12.61601962 33.16449694 -12.60935432 30.04864848 -12.5995388 26.93273163 C-12.59570113 25.4416727 -12.59453262 23.95060434 -12.59612465 22.45954132 C-12.59649782 20.36770464 -12.58380303 18.27633626 -12.56762695 16.18457031 C-12.56301956 14.9959137 -12.55841217 13.80725708 -12.55366516 12.58258057 C-12.22817264 8.47533553 -11.33013799 4.94000822 -9.1237793 1.4362793 C-6.24468435 -0.36166732 -3.28435606 -0.07429686 0 0 Z M1.70703125 16.29296875 C1.64919283 20.58457922 1.61349005 24.8760902 1.58203125 29.16796875 C1.56527344 30.39128906 1.54851562 31.61460937 1.53125 32.875 C1.52480469 34.04160156 1.51835937 35.20820312 1.51171875 36.41015625 C1.50124512 37.48894043 1.49077148 38.56772461 1.47998047 39.67919922 C1.43863148 42.45340897 1.43863148 42.45340897 3.70703125 44.29296875 C6.48024113 44.52037787 9.12153689 44.61718893 11.89453125 44.60546875 C13.00924805 44.62963867 13.00924805 44.62963867 14.14648438 44.65429688 C20.09120511 44.65950697 24.69294144 43.50330128 29.58203125 39.91796875 C32.58139495 35.58555452 32.17171258 29.35978247 31.70703125 24.29296875 C30.44009062 20.01704413 29.41169814 18.71576888 25.58203125 16.41796875 C19.37970298 14.43602175 7.57365415 13.3596573 1.70703125 16.29296875 Z " fill="#F7F6F7" transform="translate(409.29296875,488.70703125)"/>
<path d="M0 0 C2.15161133 1.14428711 2.15161133 1.14428711 4 3 C4.5300293 5.78735352 4.5300293 5.78735352 4.57421875 9.12890625 C4.60193359 10.32837891 4.62964844 11.52785156 4.65820312 12.76367188 C4.66787109 14.01728516 4.67753906 15.27089844 4.6875 16.5625 C4.72945673 19.04303255 4.77485099 21.52351013 4.82421875 24.00390625 C4.83541748 25.10549072 4.84661621 26.2070752 4.8581543 27.34204102 C4.82146575 29.97535949 4.82146575 29.97535949 6 32 C10.80548597 32.04936883 15.61082494 32.08570443 20.41650391 32.10986328 C22.05194672 32.11993254 23.68737149 32.13358881 25.32275391 32.15087891 C27.6709437 32.17508705 30.01889588 32.18647357 32.3671875 32.1953125 C33.46726639 32.21079636 33.46726639 32.21079636 34.58956909 32.22659302 C36.39462697 32.22699368 38.1990783 32.12212755 40 32 C42.67136264 29.32863736 42.25233785 27.98560667 42.2734375 24.2578125 C42.2940625 23.10925781 42.3146875 21.96070313 42.3359375 20.77734375 C42.36189486 18.35033077 42.3801745 15.92322304 42.390625 13.49609375 C42.41382813 12.34496094 42.43703125 11.19382812 42.4609375 10.0078125 C42.47326416 8.42444092 42.47326416 8.42444092 42.48583984 6.80908203 C43.12408765 3.32205484 44.2167209 2.13462553 47 0 C50.27746173 -0.47796317 52.19255039 -0.40882996 55.15515137 1.09120178 C57.89270306 3.9236476 57.50789882 6.09085031 57.51757812 9.97827148 C57.5245874 10.68429504 57.53159668 11.3903186 57.53881836 12.11773682 C57.55642948 14.4525888 57.54476454 16.78622935 57.53125 19.12109375 C57.53394435 20.74390394 57.5378263 22.36671255 57.54284668 23.98951721 C57.54874616 27.39168661 57.54016583 30.79343605 57.52148438 34.19555664 C57.49871224 38.55499742 57.51180331 42.91345225 57.53577423 47.27285671 C57.55023585 50.62465325 57.54562434 53.97621649 57.53526306 57.3280201 C57.53259581 58.93517231 57.5358655 60.54234576 57.54518127 62.14947319 C57.55535142 64.39766296 57.53984133 66.64426254 57.51757812 68.89233398 C57.51439575 70.17124008 57.51121338 71.45014618 57.50793457 72.76780701 C57 76 57 76 55.19030762 78.44813538 C53 80 53 80 49.4375 79.9375 C44.97863156 78.72144497 44.97863156 78.72144497 43 76 C42.58349609 73.3203125 42.58349609 73.3203125 42.5234375 70.125 C42.4925 68.97515625 42.4615625 67.8253125 42.4296875 66.640625 C42.41164063 65.43921875 42.39359375 64.2378125 42.375 63 C42.32403256 60.62491726 42.26951145 58.24990733 42.2109375 55.875 C42.19337402 54.82054687 42.17581055 53.76609375 42.15771484 52.6796875 C42.11051025 49.8982932 42.11051025 49.8982932 41 47 C29.12 47 17.24 47 5 47 C4.79007593 56.40850572 4.79007593 56.40850572 4.61206055 65.81762695 C4.57894775 66.98769287 4.54583496 68.15775879 4.51171875 69.36328125 C4.48553467 70.56251221 4.45935059 71.76174316 4.43237305 72.99731445 C4 76 4 76 2.58911133 77.8762207 C0.68454292 79.22308326 -0.69129009 79.58641126 -3 79.875 C-3.680625 79.97554687 -4.36125 80.07609375 -5.0625 80.1796875 C-7 80 -7 80 -8.59584045 78.9249115 C-10.71643688 76.01786261 -10.38897661 73.5880821 -10.40405273 70.02172852 C-10.41091599 69.31570496 -10.41777924 68.6096814 -10.42485046 67.88226318 C-10.4431569 65.54760648 -10.43927563 63.21361935 -10.43359375 60.87890625 C-10.43815391 59.2560962 -10.44345899 57.63328808 -10.44947815 56.01048279 C-10.45841691 52.60838987 -10.45597777 49.20653159 -10.44604492 45.80444336 C-10.43455729 41.44503776 -10.454759 37.08644241 -10.48396206 32.72714329 C-10.50231104 29.37536983 -10.5020342 26.02379098 -10.49632454 22.6719799 C-10.49617115 21.06481731 -10.50223037 19.45764168 -10.51461601 17.85052681 C-10.52949956 15.60239021 -10.51887034 13.35575569 -10.50170898 11.10766602 C-10.50154282 9.82875992 -10.50137665 8.54985382 -10.50120544 7.23219299 C-9.53378712 0.99346838 -6.02471203 -0.87860384 0 0 Z " fill="#F8F8F9" transform="translate(1000,489)"/>
<path d="M0 0 C4.3154091 2.07827854 5.81736263 3.87201034 7.55078125 8.30078125 C7.99454102 9.40542725 8.43830078 10.51007324 8.89550781 11.64819336 C9.36311523 12.85741455 9.83072266 14.06663574 10.3125 15.3125 C11.07852684 17.24397837 11.85022637 19.17312552 12.62246704 21.10212708 C13.17616697 22.48567536 13.72801847 23.8699646 14.27816772 25.25492859 C16.54166732 30.93104926 18.92353967 36.55150661 21.33984375 42.1640625 C22.07840536 43.88629632 22.81693086 45.60854562 23.55541992 47.33081055 C24.64735351 49.87586903 25.74216061 52.41947308 26.84658813 54.95913696 C27.8815755 57.34234357 28.90294868 59.73098514 29.921875 62.12109375 C30.23378281 62.8293631 30.54569061 63.53763245 30.86705017 64.2673645 C32.58657154 68.33847541 33.43041248 71.58258738 33 76 C31.9375 78.375 31.9375 78.375 30 80 C26.4390374 80.45321342 24.06516549 80.61520773 20.91015625 78.79296875 C18.61123526 76.63508586 17.90321299 74.83867274 16.875 71.875 C15.82647102 68.18176692 15.82647102 68.18176692 13 66 C8.16526076 65.71747585 3.32976351 65.68639525 -1.51245117 65.64990234 C-3.12750635 65.63331766 -4.74248739 65.60599414 -6.35717773 65.56787109 C-8.68512029 65.51319665 -11.01134637 65.49124857 -13.33984375 65.4765625 C-14.42276955 65.44255844 -14.42276955 65.44255844 -15.52757263 65.40786743 C-17.81433396 65.36186433 -17.81433396 65.36186433 -21 66 C-23.25853848 68.7584533 -24.15083007 71.37079059 -25.5 74.6875 C-27 78 -27 78 -30 80 C-35.93939394 80.53030303 -35.93939394 80.53030303 -39 79 C-40.8295228 75.34095441 -39.58202084 70.86837512 -38.39996338 67.0737915 C-37.65036716 65.11144587 -36.84414097 63.18477281 -36.0078125 61.2578125 C-35.70577408 60.53975937 -35.40373566 59.82170624 -35.09254456 59.08189392 C-34.11275578 56.75882241 -33.11906413 54.44199405 -32.125 52.125 C-31.44414722 50.51788667 -30.76422316 48.9103796 -30.08520508 47.30249023 C-28.38670658 43.28611739 -26.67730099 39.27449246 -24.96502686 35.26397705 C-23.5119473 31.85501621 -22.06975689 28.44148757 -20.62890625 25.02734375 C-18.42625509 19.80941972 -16.21659763 14.59455212 -13.9987793 9.38305664 C-13.29990282 7.71555888 -12.65711619 6.02394955 -12.05786133 4.31811523 C-9.74024454 -0.76053037 -4.95419342 -0.84384613 0 0 Z M-5 24 C-5.495 25.0725 -5.99 26.145 -6.5 27.25 C-6.7784375 27.85328125 -7.056875 28.4565625 -7.34375 29.078125 C-8.21542924 31.29242836 -8.21542924 31.29242836 -8 35 C-8.66 35 -9.32 35 -10 35 C-10.33 37.31 -10.66 39.62 -11 42 C-11.66 42 -12.32 42 -13 42 C-13.33 44.64 -13.66 47.28 -14 50 C-7.07 50 -0.14 50 7 50 C6.25087061 42.85335442 6.25087061 42.85335442 3.625 37 C1.35358644 32.7468604 -0.40038204 28.54628264 -2 24 C-2.99 24 -3.98 24 -5 24 Z " fill="#F8F8F9" transform="translate(772,489)"/>
<path d="M0 0 C1.12535156 -0.04640625 1.12535156 -0.04640625 2.2734375 -0.09375 C5.94020032 0.83207716 7.25433914 2.56067595 9.625 5.5 C11.44972863 8.81684457 12.90984957 12.26189788 14.375 15.75 C15.04934082 17.326604 15.04934082 17.326604 15.73730469 18.93505859 C16.76974899 21.35963528 17.79621772 23.78611779 18.81640625 26.21582031 C20.51086405 30.24385258 22.24050703 34.2563044 23.97137451 38.26879883 C25.55848035 41.95855624 27.12919411 45.65515055 28.69641113 49.35339355 C29.4797755 51.1955777 30.26840572 53.0355318 31.06237793 54.87316895 C32.1881193 57.48438329 33.29170541 60.1039679 34.390625 62.7265625 C34.73275024 63.50800629 35.07487549 64.28945007 35.42736816 65.09457397 C37.41475803 69.91456474 38.12863446 73.29999959 36.625 78.5 C32.84411041 81.02059306 31.09849042 81.19416231 26.625 80.5 C22.71728731 76.9595919 21.15299109 72.4365866 19.625 67.5 C16.57971781 65.97735891 13.40354754 66.33714463 10.0625 66.33203125 C9.31540771 66.32870285 8.56831543 66.32537445 7.79858398 66.32194519 C6.21826799 66.31688034 4.63794129 66.31453673 3.05761719 66.31469727 C0.63458757 66.31250866 -1.78798836 66.29434299 -4.2109375 66.27539062 C-5.7447901 66.27245708 -7.27864488 66.27047202 -8.8125 66.26953125 C-9.53961182 66.26234573 -10.26672363 66.25516022 -11.01586914 66.24775696 C-15.14973031 66.13530158 -15.14973031 66.13530158 -18.375 68.5 C-19.09427295 70.81765729 -19.7659893 73.15095874 -20.375 75.5 C-21.035 75.5 -21.695 75.5 -22.375 75.5 C-22.684375 76.139375 -22.99375 76.77875 -23.3125 77.4375 C-24.375 79.5 -24.375 79.5 -25.375 80.5 C-29.32336905 80.7632246 -31.97879269 80.58997373 -35.375 78.5 C-36.25010333 71.13632565 -33.12860278 65.27375662 -30.25 58.625 C-29.71449842 57.36304007 -29.18018019 56.10057742 -28.64697266 54.83764648 C-27.20898766 51.43987705 -25.75611558 48.04866602 -24.30029297 44.6585083 C-22.38011128 40.17913987 -20.47691133 35.69252864 -18.57254028 31.2064209 C-17.02711754 27.56596614 -15.47881721 23.92683998 -13.92138672 20.29150391 C-13.35123032 18.95605753 -12.78108027 17.62060844 -12.2109375 16.28515625 C-11.46142822 14.53537476 -11.46142822 14.53537476 -10.69677734 12.75024414 C-9.81911671 10.59208086 -9.01284927 8.40343411 -8.28222656 6.19116211 C-6.72936942 1.58482619 -4.85321414 0.06625548 0 0 Z M-0.375 24.5 C-2.5269437 27.72791555 -2.57586443 28.78400809 -2.375 32.5 C-3.035 32.5 -3.695 32.5 -4.375 32.5 C-4.705 34.81 -5.035 37.12 -5.375 39.5 C-6.035 39.5 -6.695 39.5 -7.375 39.5 C-8.56787411 43.37684087 -9.375 46.41621923 -9.375 50.5 C-2.445 50.5 4.485 50.5 11.625 50.5 C11.955 49.51 12.285 48.52 12.625 47.5 C11.67773046 45.80280873 10.66943685 44.13918561 9.625 42.5 C8.91321615 40.72577407 8.2465927 38.93279877 7.625 37.125 C6.11384652 32.82983683 4.47381432 28.65983222 2.625 24.5 C1.635 24.5 0.645 24.5 -0.375 24.5 Z " fill="#F8F8F9" transform="translate(1145.375,488.5)"/>
<path d="M0 0 C0.84460281 -0.00953201 1.68920563 -0.01906403 2.55940247 -0.02888489 C3.47396713 -0.02797348 4.3885318 -0.02706207 5.33081055 -0.02612305 C6.27055222 -0.03040817 7.21029388 -0.0346933 8.17851257 -0.03910828 C10.16994419 -0.04485876 12.16139682 -0.04534658 14.15283203 -0.04101562 C17.19494746 -0.03786518 20.23608176 -0.06127271 23.27807617 -0.08666992 C25.21231974 -0.08894384 27.14656592 -0.08964598 29.08081055 -0.08862305 C29.98930252 -0.09783279 30.89779449 -0.10704254 31.83381653 -0.11653137 C37.15528987 -0.07772102 40.94809855 0.31772746 44.9050293 4.2746582 C45.04618091 6.94524671 44.94750037 9.59898058 44.9050293 12.2746582 C40.67992526 14.30252559 37.11277817 14.56428558 32.4519043 14.65356445 C31.75107727 14.67055893 31.05025024 14.68755341 30.32818604 14.70506287 C28.10389038 14.75792408 25.87961178 14.79839654 23.6550293 14.8371582 C21.41625391 14.88107929 19.17762237 14.92769794 16.93902588 14.97996521 C14.91838522 15.02645951 12.89754406 15.06397978 10.87670898 15.10107422 C8.0205409 14.93759001 8.0205409 14.93759001 6.9050293 16.2746582 C6.80527898 18.78601925 6.76620747 21.26369235 6.7800293 23.7746582 C6.77616211 24.47719727 6.77229492 25.17973633 6.76831055 25.90356445 C6.46111999 29.37894629 6.46111999 29.37894629 7.9050293 32.2746582 C9.8689986 32.3841445 11.83654875 32.43053833 13.8034668 32.45043945 C15.60557617 32.48621094 15.60557617 32.48621094 17.4440918 32.52270508 C19.99340264 32.56553973 22.54293389 32.5968629 25.0925293 32.61645508 C26.29651367 32.64416992 27.50049805 32.67188477 28.7409668 32.70043945 C30.40458252 32.72231323 30.40458252 32.72231323 32.10180664 32.74462891 C34.9050293 33.2746582 34.9050293 33.2746582 36.77856445 35.10742188 C38.24850729 37.93548486 38.11912905 40.13452843 37.9050293 43.2746582 C37.2450293 43.2746582 36.5850293 43.2746582 35.9050293 43.2746582 C35.9050293 43.9346582 35.9050293 44.5946582 35.9050293 45.2746582 C35.2450293 45.2746582 34.5850293 45.2746582 33.9050293 45.2746582 C33.9050293 45.9346582 33.9050293 46.5946582 33.9050293 47.2746582 C20.5400293 47.7696582 20.5400293 47.7696582 6.9050293 48.2746582 C6.9050293 53.5546582 6.9050293 58.8346582 6.9050293 64.2746582 C9.39678711 64.30043945 11.88854492 64.3262207 14.45581055 64.3527832 C16.86860462 64.39119422 19.28118428 64.43635721 21.69384766 64.48217773 C23.3708269 64.51040588 25.04793964 64.5316113 26.72509766 64.5456543 C29.13603148 64.56705945 31.54535713 64.61369246 33.95581055 64.6652832 C34.70590897 64.66651184 35.45600739 64.66774048 36.22883606 64.66900635 C39.51104594 64.7613985 41.41055203 64.81976114 43.87841797 67.09008789 C45.38466323 70.29529184 45.2854703 72.78728234 44.9050293 76.2746582 C43.34852002 78.38034808 42.46073947 79.16881757 39.86953735 79.66233826 C39.09186005 79.66774124 38.31418274 79.67314423 37.51293945 79.67871094 C36.62837067 79.69139511 35.74380188 79.70407928 34.83242798 79.71714783 C33.87927704 79.71421219 32.9261261 79.71127655 31.9440918 79.70825195 C30.96137299 79.7134938 29.97865417 79.71873566 28.96615601 79.72413635 C26.88654526 79.73056172 24.80689819 79.72921293 22.72729492 79.72070312 C19.54889908 79.71220863 16.37230929 79.7409229 13.1940918 79.77270508 C11.173259 79.77431758 9.15242303 79.77373863 7.1315918 79.77075195 C6.18248932 79.78198593 5.23338684 79.79321991 4.25552368 79.80479431 C-0.04932179 79.75946401 -2.44417329 79.67783035 -6.17163086 77.36865234 C-9.36646747 73.89034394 -9.22856102 71.7191215 -9.25610352 67.06835938 C-9.26571106 65.76327927 -9.2753186 64.45819916 -9.28521729 63.11357117 C-9.29006551 61.68159154 -9.29434428 60.24960988 -9.2980957 58.81762695 C-9.30384764 57.35272723 -9.30960537 55.88782753 -9.31536865 54.42292786 C-9.32588041 51.3486801 -9.33172165 48.27445851 -9.33520508 45.20019531 C-9.34068449 41.26587332 -9.36469959 37.33189834 -9.39317703 33.39768505 C-9.41182738 30.37017314 -9.41701032 27.34274433 -9.41854095 24.31517982 C-9.42156357 22.86513691 -9.42957897 21.41509533 -9.44272614 19.96510887 C-9.45983169 17.93318939 -9.45605506 15.90112681 -9.45141602 13.86914062 C-9.45506165 12.71379318 -9.45870728 11.55844574 -9.46246338 10.36808777 C-8.77622979 4.59160453 -6.06518263 0.03754146 0 0 Z " fill="#F7F6F7" transform="translate(168.094970703125,488.725341796875)"/>
<path d="M0 0 C0.9077417 -0.01260864 1.8154834 -0.02521729 2.75073242 -0.03820801 C4.21023315 -0.02606262 4.21023315 -0.02606262 5.69921875 -0.01367188 C6.70509033 -0.01749878 7.71096191 -0.02132568 8.74731445 -0.02526855 C10.87224326 -0.02798838 12.99720551 -0.02062228 15.12207031 -0.00390625 C18.37510807 0.01750172 21.6259372 -0.0037062 24.87890625 -0.02929688 C26.94401529 -0.02665361 29.00912296 -0.02152867 31.07421875 -0.01367188 C32.04721924 -0.0217688 33.02021973 -0.02986572 34.02270508 -0.03820801 C40.71774328 0.05478689 40.71774328 0.05478689 44.00390625 2.328125 C46.02139986 5.52248989 45.85664427 7.82530619 45.38671875 11.51757812 C44.35400391 13.20263672 44.35400391 13.20263672 42.38671875 14.51757812 C39.67733426 14.83657122 37.18510758 14.98232844 34.47265625 14.99414062 C33.31728867 15.01750992 33.31728867 15.01750992 32.13858032 15.04135132 C29.67963653 15.08887301 27.22097699 15.11664064 24.76171875 15.14257812 C22.29551861 15.17902916 19.82948104 15.21959375 17.36343384 15.26522827 C15.82884212 15.29252358 14.29413081 15.31384489 12.7593689 15.32876587 C9.28099383 15.06622851 9.28099383 15.06622851 6.38671875 16.51757812 C6.15018352 19.04354072 5.96498183 21.54865019 5.82421875 24.08007812 C5.78103516 24.79099609 5.73785156 25.50191406 5.69335938 26.234375 C5.58700098 27.99519724 5.48633029 29.75636132 5.38671875 31.51757812 C6.04671875 31.51757812 6.70671875 31.51757812 7.38671875 31.51757812 C7.38671875 32.17757812 7.38671875 32.83757813 7.38671875 33.51757812 C8.59001831 33.48615723 8.59001831 33.48615723 9.81762695 33.45410156 C13.44469723 33.37106496 17.07156781 33.31895608 20.69921875 33.26757812 C21.96185547 33.2340625 23.22449219 33.20054687 24.52539062 33.16601562 C25.73388672 33.153125 26.94238281 33.14023437 28.1875 33.12695312 C29.86066284 33.09553223 29.86066284 33.09553223 31.56762695 33.06347656 C34.38671875 33.51757812 34.38671875 33.51757812 36.24682617 35.35449219 C37.80898367 38.31887758 37.8686872 40.21265164 37.38671875 43.51757812 C35.21167854 46.39726376 34.06087277 47.41318864 30.45410156 47.97167969 C29.34389648 47.95073242 28.23369141 47.92978516 27.08984375 47.90820312 C25.88457031 47.8953125 24.67929687 47.88242187 23.4375 47.86914062 C22.18324219 47.835625 20.92898438 47.80210937 19.63671875 47.76757812 C18.36699219 47.74953125 17.09726562 47.73148438 15.7890625 47.71289062 C12.65462617 47.66575624 9.52057745 47.5940137 6.38671875 47.51757812 C6.38671875 52.79757812 6.38671875 58.07757812 6.38671875 63.51757812 C9.36032437 65.00438093 12.40001009 64.6534119 15.66015625 64.65820312 C17.13933833 64.67653026 18.61850543 64.69610049 20.09765625 64.71679688 C22.43059555 64.74577444 24.76257211 64.7675783 27.09570312 64.76806641 C29.34722377 64.7714027 31.59652182 64.80595451 33.84765625 64.84570312 C34.89002945 64.83509857 34.89002945 64.83509857 35.95346069 64.82427979 C39.64699691 64.91699788 41.12518543 65.26604137 43.82666016 67.86425781 C45.72244909 71.0885824 46.02649844 72.83884493 45.38671875 76.51757812 C42.5959677 79.16112071 40.67159191 79.89297016 36.86523438 79.88989258 C35.53365295 79.89923576 35.53365295 79.89923576 34.1751709 79.9087677 C32.74848083 79.89495308 32.74848083 79.89495308 31.29296875 79.88085938 C29.81745544 79.88160713 29.81745544 79.88160713 28.31213379 79.88237 C26.23427305 79.88003155 24.15640937 79.87031655 22.07861328 79.85375977 C18.89850529 79.83016557 15.7192358 79.83320096 12.5390625 79.83984375 C10.51952625 79.83426686 8.49999354 79.82715691 6.48046875 79.81835938 C5.52934204 79.81927078 4.57821533 79.82018219 3.5982666 79.82112122 C2.71054565 79.8115892 1.82282471 79.80205719 0.90820312 79.79223633 C0.12973022 79.78762894 -0.64874268 79.78302155 -1.45080566 79.77827454 C-3.90920678 79.48190294 -5.51661525 78.82256614 -7.61328125 77.51757812 C-9.0629142 74.61831223 -8.76466841 72.07541933 -8.7902832 68.83642578 C-8.7968544 68.15005539 -8.8034256 67.463685 -8.81019592 66.7565155 C-8.82993224 64.48155614 -8.84159145 62.20666276 -8.8515625 59.93164062 C-8.85563803 59.15515545 -8.85971355 58.37867027 -8.86391258 57.57865524 C-8.88477359 53.46975724 -8.8990758 49.36089264 -8.90844727 45.25195312 C-8.91951895 41.00580963 -8.95392692 36.76018916 -8.99361897 32.51423073 C-9.01974837 29.25085467 -9.02813573 25.98760401 -9.03172874 22.72413254 C-9.03660336 21.15881183 -9.04824229 19.59349704 -9.06676674 18.02827835 C-9.09108425 15.83760201 -9.09020779 13.64828918 -9.08325195 11.45751953 C-9.08911819 10.21112701 -9.09498444 8.9647345 -9.10102844 7.68057251 C-8.61328125 4.51757812 -8.61328125 4.51757812 -6.87223816 2.11618042 C-4.31124402 0.3038346 -3.10284943 0.01240135 0 0 Z " fill="#F8F7F8" transform="translate(484.61328125,488.482421875)"/>
<path d="M0 0 C0.82773422 -0.01283524 1.65546844 -0.02567047 2.50828552 -0.03889465 C3.39895218 -0.04628159 4.28961884 -0.05366852 5.20727539 -0.0612793 C6.12577774 -0.06935104 7.04428009 -0.07742279 7.99061584 -0.08573914 C9.93317789 -0.09956546 11.87576407 -0.1102941 13.81835938 -0.11816406 C16.79026022 -0.13541289 19.76105873 -0.17931562 22.73266602 -0.22338867 C24.62002763 -0.23351279 26.50739869 -0.24202977 28.39477539 -0.2487793 C29.28341782 -0.26628738 30.17206024 -0.28379547 31.08763123 -0.30183411 C37.21735114 -0.28025124 37.21735114 -0.28025124 40.43212891 1.98095703 C42.51773498 5.17198045 42.34125794 7.45408099 41.86743164 11.17700195 C40.8347168 12.86206055 40.8347168 12.86206055 38.86743164 14.17700195 C36.15804715 14.49599505 33.66582047 14.64175227 30.95336914 14.65356445 C29.79800156 14.67693375 29.79800156 14.67693375 28.61929321 14.70077515 C26.16034942 14.74829684 23.70168988 14.77606446 21.24243164 14.80200195 C18.7762315 14.83845299 16.31019393 14.87901757 13.84414673 14.9246521 C12.30955501 14.95194741 10.7748437 14.97326872 9.24008179 14.9881897 C5.76170672 14.72565234 5.76170672 14.72565234 2.86743164 16.17700195 C2.76768132 18.688363 2.72860981 21.1660361 2.74243164 23.67700195 C2.73856445 24.37954102 2.73469727 25.08208008 2.73071289 25.8059082 C2.42352233 29.28129004 2.42352233 29.28129004 3.86743164 32.17700195 C5.67294482 32.31065316 7.48326101 32.38049679 9.29321289 32.4230957 C10.39987305 32.4559668 11.5065332 32.48883789 12.64672852 32.52270508 C14.99038776 32.58359617 17.33414246 32.64092442 19.67797852 32.69458008 C20.78850586 32.72874023 21.8990332 32.76290039 23.04321289 32.7980957 C24.06326416 32.82315186 25.08331543 32.84820801 26.13427734 32.87402344 C28.89599355 33.18016813 30.57487556 33.62363915 32.86743164 35.17700195 C34.18228771 39.03391308 34.10885782 40.6601104 32.37133789 44.38012695 C31.87504883 45.3030957 31.37875977 46.22606445 30.86743164 47.17700195 C30.0547583 47.20205811 29.24208496 47.22711426 28.40478516 47.25292969 C24.74632412 47.36849314 21.08814636 47.49139779 17.42993164 47.61450195 C16.15053711 47.65381836 14.87114258 47.69313477 13.55297852 47.73364258 C12.33803711 47.77553711 11.1230957 47.81743164 9.87133789 47.8605957 C8.1824646 47.91558228 8.1824646 47.91558228 6.45947266 47.97167969 C3.93889723 47.8891824 3.93889723 47.8891824 2.86743164 49.17700195 C2.76833862 51.5086025 2.7377266 53.84330137 2.74243164 56.17700195 C2.73985352 57.45575195 2.73727539 58.73450195 2.73461914 60.05200195 C2.50882271 63.04387439 2.50882271 63.04387439 3.86743164 64.17700195 C6.33969368 64.27521484 8.78911778 64.31412811 11.26196289 64.31762695 C12.78997255 64.33595806 14.31796775 64.35552866 15.84594727 64.3762207 C18.26229114 64.40518247 20.67770963 64.4270015 23.09423828 64.42749023 C25.42182099 64.43082659 27.7472536 64.46538718 30.07446289 64.50512695 C30.79438919 64.49805725 31.51431549 64.49098755 32.25605774 64.48370361 C36.00670301 64.57462294 37.5706464 64.8934052 40.32324219 67.52368164 C42.19975722 70.748024 42.50567209 72.50711939 41.86743164 76.17700195 C39.08611682 78.8069593 37.15277496 79.55464123 33.36181641 79.58105469 C32.03507652 79.60008095 32.03507652 79.60008095 30.68153381 79.61949158 C29.73354416 79.61655594 28.7855545 79.6136203 27.80883789 79.6105957 C26.82753403 79.61583755 25.84623016 79.62107941 24.83518982 79.6264801 C22.76155543 79.63289843 20.68788463 79.63156577 18.61425781 79.62304688 C15.44473276 79.61454167 12.27701283 79.64329382 9.10766602 79.67504883 C7.09139051 79.67666109 5.07511182 79.67608284 3.05883789 79.6730957 C2.11287247 79.68432968 1.16690704 79.69556366 0.192276 79.70713806 C-0.69536942 79.69775711 -1.58301483 79.68837616 -2.49755859 79.67871094 C-3.27381088 79.67854477 -4.05006317 79.6783786 -4.84983826 79.6782074 C-8.18511815 78.94589987 -9.79937615 77.65241125 -12.13256836 75.17700195 C-12.76748657 72.11012268 -12.76748657 72.11012268 -12.77954102 68.46826172 C-12.78830261 67.80271271 -12.79706421 67.1371637 -12.80609131 66.45144653 C-12.82805646 64.25643254 -12.8135445 62.06344183 -12.79663086 59.8684082 C-12.80000031 58.33910232 -12.804854 56.80979905 -12.81112671 55.28050232 C-12.81849434 52.07671592 -12.80779871 48.87362709 -12.78442383 45.66992188 C-12.75595882 41.56933477 -12.77232415 37.47038553 -12.80228615 33.36985874 C-12.82038352 30.21184526 -12.81458982 27.05421788 -12.80164719 23.89619255 C-12.79831859 22.384763 -12.8023811 20.87329807 -12.81404495 19.36190987 C-12.82679296 17.24537971 -12.80732828 15.1314722 -12.77954102 13.01513672 C-12.77556305 11.81252701 -12.77158508 10.6099173 -12.76748657 9.37086487 C-11.94962336 5.25672397 -10.35558182 3.77667802 -7.13256836 1.17700195 C-4.42639761 0.27494504 -2.78612097 0.0377058 0 0 Z " fill="#F9F9FA" transform="translate(670.132568359375,488.822998046875)"/>
<path d="M0 0 C4.09714249 4.51793971 3.45031103 10.04292883 3.43359375 15.78515625 C3.4388356 16.83722763 3.44407745 17.88929901 3.44947815 18.97325134 C3.45589569 21.19985066 3.45456484 23.4264839 3.44604492 25.65307617 C3.4375902 29.02651068 3.46621198 32.39821943 3.49804688 35.77148438 C3.57832482 60.33733509 3.57832482 60.33733509 -3.375 68.9375 C-4.24125 69.618125 -5.1075 70.29875 -6 71 C-6.886875 71.845625 -7.77375 72.69125 -8.6875 73.5625 C-16.17755736 79.69776662 -26.53113843 81.84392706 -36 81 C-44.77795034 79.80234288 -51.59776599 74.95009251 -57 68 C-62.25757179 60.23443322 -63.8869388 53.99134622 -63.7265625 44.69140625 C-63.72755951 43.56226303 -63.72855652 42.43311981 -63.72958374 41.26976013 C-63.72493552 38.904133 -63.70567646 36.53849283 -63.67236328 34.1730957 C-63.62480255 30.54744818 -63.63130971 26.92471234 -63.64453125 23.29882812 C-63.63338773 20.99216995 -63.6191743 18.68552411 -63.6015625 16.37890625 C-63.60429672 14.75548058 -63.60429672 14.75548058 -63.60708618 13.09925842 C-63.58802216 12.09398605 -63.56895813 11.08871368 -63.54931641 10.05297852 C-63.54010162 9.1712648 -63.53088684 8.28955109 -63.52139282 7.38111877 C-62.82781411 4.21365421 -61.50826716 2.99379776 -59 1 C-55.64828501 0.51120823 -53.79678412 0.54450327 -50.84165955 2.2338562 C-49 4 -49 4 -48.5146637 6.16043091 C-48.52086227 6.99710297 -48.52706085 7.83377502 -48.53344727 8.69580078 C-48.5298671 9.64754181 -48.52628693 10.59928284 -48.52259827 11.5798645 C-48.5370549 12.60796234 -48.55151154 13.63606018 -48.56640625 14.6953125 C-48.55679386 16.87760485 -48.54702315 19.0598965 -48.53710938 21.2421875 C-48.54568293 24.67846913 -48.56243231 28.11456187 -48.5847168 31.55078125 C-48.59931326 34.87015991 -48.58392261 38.18847074 -48.56640625 41.5078125 C-48.58288712 42.52376495 -48.59936798 43.53971741 -48.61634827 44.5864563 C-48.56833496 51.50891995 -47.13666188 56.3887541 -43 62 C-39.08671217 65.43815001 -35.08170195 65.4887639 -30.0625 65.4375 C-29.37220703 65.45748047 -28.68191406 65.47746094 -27.97070312 65.49804688 C-22.83366629 65.49317765 -19.9543115 64.20251874 -16 61 C-10.89237522 54.65950028 -11.85974519 45.48592717 -11.82421875 37.734375 C-11.80104728 35.77342645 -11.7769311 33.81248887 -11.75195312 31.8515625 C-11.71670302 28.78800772 -11.68739074 25.72486688 -11.67407227 22.66113281 C-11.65863618 19.68505466 -11.61849486 16.71014527 -11.57421875 13.734375 C-11.57612717 12.81767029 -11.57803558 11.90096558 -11.58000183 10.95648193 C-11.45834349 4.65045649 -11.45834349 4.65045649 -9.18676758 1.42675781 C-5.94707498 -0.68698156 -3.76863921 -0.61668642 0 0 Z " fill="#F6F6F7" transform="translate(376,488)"/>
<path d="M0 0 C2.33792272 1.72137319 4.65092198 3.44389073 6.70703125 5.5 C7.20691291 10.66544379 7.20691291 10.66544379 6.70703125 13.5 C4.58203125 15.5625 4.58203125 15.5625 1.70703125 16.5 C-2.07287794 16.42125189 -3.79479738 15.908756 -6.73046875 13.5 C-11.47358622 9.79805466 -17.47639497 10.37470538 -23.27734375 10.171875 C-25.87506195 10.59475936 -26.72663055 11.41803494 -28.29296875 13.5 C-28.79296875 16.5 -28.79296875 16.5 -28.29296875 19.5 C-26.22467781 22.06930552 -24.0543123 23.23649921 -21.04296875 24.5 C-20.24246094 24.84289062 -19.44195313 25.18578125 -18.6171875 25.5390625 C-16.70200914 26.33088414 -14.77965457 27.10532567 -12.85546875 27.875 C-4.09771058 31.86976689 4.31800061 36.61798727 8.96875 45.421875 C10.8149137 50.61848393 10.78524332 55.90008485 8.671875 60.99609375 C4.78041674 67.42404569 -0.6226374 72.00114947 -7.8125 74.30859375 C-10.31009803 74.86489439 -12.74956315 75.22986705 -15.29296875 75.5 C-17.18015625 75.7165625 -17.18015625 75.7165625 -19.10546875 75.9375 C-28.26574134 75.62226795 -37.31589013 70.88045326 -43.8046875 64.62890625 C-45.51308689 62.18513284 -45.76297378 61.06198631 -45.48046875 58.125 C-44.29296875 54.5 -44.29296875 54.5 -42.29296875 52.5 C-35.31598665 51.93734015 -35.31598665 51.93734015 -31.79296875 53.875 C-30.29296875 55.5 -30.29296875 55.5 -30.29296875 57.5 C-25.85300115 59.6543038 -21.81878101 59.91745846 -16.98046875 60.125 C-16.23990234 60.16367187 -15.49933594 60.20234375 -14.73632812 60.2421875 C-12.92225566 60.33581705 -11.10764759 60.41896851 -9.29296875 60.5 C-9.29296875 59.84 -9.29296875 59.18 -9.29296875 58.5 C-8.30296875 57.84 -7.31296875 57.18 -6.29296875 56.5 C-5.77483506 52.5029687 -5.61850567 50.38377921 -8.10546875 47.125 C-10.28518704 45.32933128 -10.28518704 45.32933128 -13.29296875 44.5 C-13.29296875 43.84 -13.29296875 43.18 -13.29296875 42.5 C-13.97746094 42.38785156 -14.66195312 42.27570312 -15.3671875 42.16015625 C-18.7703518 41.39228607 -21.86039973 40.21586052 -25.10546875 38.9375 C-26.26691406 38.48246094 -27.42835938 38.02742187 -28.625 37.55859375 C-29.94564453 37.03458984 -29.94564453 37.03458984 -31.29296875 36.5 C-31.29296875 35.84 -31.29296875 35.18 -31.29296875 34.5 C-31.84984375 34.4175 -32.40671875 34.335 -32.98046875 34.25 C-37.90430777 32.65307924 -41.1781897 29.163369 -43.55859375 24.6171875 C-45.31043146 19.56667667 -45.38737913 14.15080546 -43.33984375 9.19140625 C-42.11904322 7.14772435 -40.8014237 5.339477 -39.29296875 3.5 C-38.57109375 2.571875 -37.84921875 1.64375 -37.10546875 0.6875 C-27.02862475 -7.15004533 -10.51226819 -6.87685006 0 0 Z " fill="#F7F6F7" transform="translate(628.29296875,493.5)"/>
<path d="M0 0 C2.2947542 2.10157336 2.51836447 3.20047052 2.71875 6.33984375 C2.53125 9.40234375 2.53125 9.40234375 0.53125 12.40234375 C-2.71875 13.33984375 -2.71875 13.33984375 -6.46875 13.40234375 C-9.13855517 11.91911865 -11.30991378 10.56117997 -13.46875 8.40234375 C-23.36107472 6.47558596 -23.36107472 6.47558596 -32.46875 9.40234375 C-32.73903374 13.11874514 -32.649683 15.85954475 -31.46875 19.40234375 C-29.60760125 20.18345469 -29.60760125 20.18345469 -27.28125 20.65234375 C-16.78627039 23.52829942 -2.89607985 29.27554251 3.03125 38.90234375 C5.53876511 44.77580256 5.48276865 51.17752326 4.53125 57.40234375 C3.06112074 60.73221251 1.19885209 62.95407783 -1.46875 65.40234375 C-1.98695313 65.90378906 -2.50515625 66.40523437 -3.0390625 66.921875 C-8.99860511 71.91695057 -17.72872786 72.99794277 -25.31640625 72.703125 C-35.07982156 71.33872758 -43.41778358 67.37031892 -49.46875 59.40234375 C-50.42979271 56.1970479 -50.17913878 54.77669047 -49.46875 51.40234375 C-47.46875 49.40234375 -47.46875 49.40234375 -43.84375 48.90234375 C-38.46985166 48.9906012 -35.39632471 52.07404687 -31.46875 55.40234375 C-28.32246632 56.97548559 -24.98293512 56.66930701 -21.53125 56.71484375 C-20.80228516 56.74384766 -20.07332031 56.77285156 -19.32226562 56.80273438 C-16.14060659 56.84064599 -14.00873005 56.79941793 -11.40234375 54.8828125 C-10.01558674 51.19833258 -9.97800479 48.00967024 -11.46875 44.40234375 C-13.67489815 42.35479773 -16.14807332 41.30386386 -18.90625 40.15234375 C-19.62748047 39.82298828 -20.34871094 39.49363281 -21.09179688 39.15429688 C-23.20398285 38.20107622 -25.33006984 37.29427586 -27.46875 36.40234375 C-29.09490234 35.71398437 -29.09490234 35.71398437 -30.75390625 35.01171875 C-32.98015923 34.10199811 -35.21010432 33.22761813 -37.46875 32.40234375 C-37.46875 31.74234375 -37.46875 31.08234375 -37.46875 30.40234375 C-38.05140625 30.32628906 -38.6340625 30.25023437 -39.234375 30.171875 C-43.14753601 28.82416046 -44.80765412 25.70604553 -47.03515625 22.3671875 C-49.44939146 17.37425965 -49.4318869 12.79747649 -48.46875 7.40234375 C-45.49668003 0.83902258 -39.4506398 -4.43522463 -32.78125 -7.03515625 C-20.35840537 -9.23605392 -9.94869857 -7.75761615 0 0 Z " fill="#F6F6F7" transform="translate(134.46875,496.59765625)"/>
<path d="M0 0 C4.92852618 2.99883868 4.92852618 2.99883868 6.65234375 4.72265625 C7.10668673 9.94760057 7.10668673 9.94760057 5.58984375 12.53515625 C2.56002283 14.39214327 0.19888886 14.60637608 -3.34765625 14.72265625 C-6.1717216 13.94751943 -8.65200082 12.90496126 -11.34765625 11.72265625 C-11.34765625 11.06265625 -11.34765625 10.40265625 -11.34765625 9.72265625 C-21.80772635 9.32958472 -29.24495169 10.00513656 -37.46484375 16.921875 C-42.20349427 21.4540698 -43.15110574 25.84528562 -43.5859375 32.2109375 C-43.74941282 40.63421853 -43.64436561 46.9898947 -37.76953125 53.4609375 C-30.88991122 59.95319154 -22.99596152 60.14837847 -13.8828125 60.05859375 C-9.27033916 59.62028137 -7.11882352 58.2902595 -3.34765625 55.72265625 C0.40908427 55.13336362 1.88402767 55.1969663 5.02734375 57.34765625 C7.13940881 60.43452057 7.2642952 62.05094755 6.65234375 65.72265625 C2.6860428 71.11682554 -3.85489677 74.04742476 -10.26953125 75.40625 C-21.46314258 77.11054045 -34.02499236 74.72044397 -43.40234375 68.3203125 C-51.01916276 61.89668617 -57.85307927 53.47164008 -59.1640625 43.33984375 C-59.22464844 42.47617187 -59.28523437 41.6125 -59.34765625 40.72265625 C-59.43917969 39.71460938 -59.53070313 38.7065625 -59.625 37.66796875 C-60.19326538 26.1086193 -56.5003486 16.34507937 -49.05078125 7.53515625 C-46.95983429 5.30992829 -44.92638558 3.37017777 -42.34765625 1.72265625 C-41.35765625 1.72265625 -40.36765625 1.72265625 -39.34765625 1.72265625 C-39.34765625 1.06265625 -39.34765625 0.40265625 -39.34765625 -0.27734375 C-27.00474526 -6.13499642 -12.18586267 -6.63024475 0 0 Z " fill="#F6F6F7" transform="translate(288.34765625,493.27734375)"/>
<path d="M0 0 C0 0.66 0 1.32 0 2 C0.78375 2.28875 1.5675 2.5775 2.375 2.875 C5 4 5 4 7 6 C7.32720122 9.07569148 7.53489888 11.13821847 5.875 13.8125 C3.20813239 15.50151615 1.14780008 15.81483529 -2 16 C-5.375 15.0625 -5.375 15.0625 -8 14 C-8 13.34 -8 12.68 -8 12 C-18.01043707 10.69770176 -26.13354498 10.72409061 -34.875 16.1875 C-39.41753163 19.71224742 -41.23005492 24.69016477 -43 30 C-43.75053746 38.9421177 -43.99002975 46.79006862 -38 54 C-34.1274499 58.01120918 -30.27851055 60.76946834 -24.6796875 61.3359375 C-17.46589497 61.41000108 -11.72681102 60.99171988 -5.08203125 57.90625 C-2.20352759 56.65331783 -0.08001076 56.41333128 3 57 C5.375 58.625 5.375 58.625 7 61 C7.5 64 7.5 64 7 67 C1.6256062 73.43185554 -6.94683408 76.04869174 -15.0625 76.9375 C-26.02263469 77.40905729 -36.39701255 74.96628433 -44.75 67.5625 C-45.4925 66.716875 -46.235 65.87125 -47 65 C-48.10204875 63.95609291 -49.20628082 62.9144867 -50.3125 61.875 C-53 59 -53 59 -53 56 C-53.66 56 -54.32 56 -55 56 C-60.21676895 45.00752257 -60.9863848 33.52540233 -56.9375 22.0625 C-53.05900997 13.27052961 -47.92704045 6.08386448 -39 2 C-38.34 2 -37.68 2 -37 2 C-37 1.34 -37 0.68 -37 0 C-24.99152175 -5.14649068 -12.21196369 -3.88562481 0 0 Z " fill="#F6F6F7" transform="translate(963,492)"/>
<path d="M0 0 C2.1893158 1.09402466 2.1893158 1.09402466 4 3 C4.5146637 6.06051636 4.5146637 6.06051636 4.53344727 9.87060547 C4.54206284 10.56526917 4.55067841 11.25993286 4.55955505 11.97564697 C4.58226678 14.27320574 4.57546626 16.56954957 4.56640625 18.8671875 C4.57164056 20.46518314 4.57791633 22.06317567 4.58518982 23.66116333 C4.5956043 27.0120496 4.59101937 30.36251154 4.57641602 33.71337891 C4.55924872 38.00337544 4.58269093 42.29203006 4.61790562 46.58187675 C4.63989298 49.88311607 4.63843466 53.18403517 4.6301403 56.48532486 C4.62932107 58.06654454 4.63617932 59.6477878 4.65091133 61.22893906 C4.66837859 63.44365932 4.6538005 65.6559807 4.63110352 67.87060547 C4.62966087 69.75898636 4.62966087 69.75898636 4.62818909 71.68551636 C3.83064014 75.89358522 2.34931832 77.40917802 -1 80 C-4.16369796 80 -6.03345621 79.65706091 -8.65542603 77.87463379 C-10.72097566 74.99480032 -10.3816474 72.51422142 -10.38818359 69.00585938 C-10.39344055 68.29822952 -10.39869751 67.59059967 -10.40411377 66.86152649 C-10.41731947 64.52204323 -10.40857415 62.1832402 -10.3984375 59.84375 C-10.40045808 58.21854522 -10.40336939 56.59334132 -10.40713501 54.96813965 C-10.41155912 51.56184254 -10.40512466 48.15578141 -10.39111328 44.74951172 C-10.37402117 40.38115404 -10.38386191 36.01334929 -10.40183067 31.6450119 C-10.41266627 28.2889997 -10.40922324 24.9331188 -10.4014473 21.57710266 C-10.39944466 19.96633336 -10.4019068 18.35555218 -10.40888596 16.74479675 C-10.41649698 14.49425639 -10.40490228 12.24461402 -10.38818359 9.99414062 C-10.38579681 8.71301392 -10.38341003 7.43188721 -10.38095093 6.11193848 C-10 3 -10 3 -8.69058228 1.08630371 C-5.81616578 -0.76068673 -3.305707 -0.34796916 0 0 Z " fill="#F7F6F7" transform="translate(1213,489)"/>
<path d="M0 0 C3.34974454 1.36186335 5.39498746 2.51079494 7.5078125 5.46875 C8.56281483 12.25090782 8.8640022 19.19508442 4.6953125 25.03125 C-0.31927216 28.61309618 -5.90581661 28.59195879 -11.8046875 28.53125 C-12.95517578 28.54285156 -12.95517578 28.54285156 -14.12890625 28.5546875 C-19.80118772 28.53474978 -19.80118772 28.53474978 -22.0546875 26.28125 C-22.28173828 23.66748047 -22.28173828 23.66748047 -22.25 20.3984375 C-22.24355469 19.23183594 -22.23710937 18.06523438 -22.23046875 16.86328125 C-22.21371094 15.63996094 -22.19695312 14.41664063 -22.1796875 13.15625 C-22.17066406 11.92519531 -22.16164063 10.69414063 -22.15234375 9.42578125 C-22.12871298 6.37741185 -22.09576804 3.32942618 -22.0546875 0.28125 C-16.33779991 -2.57719379 -6.13376899 -1.44323976 0 0 Z " fill="#271537" transform="translate(433.0546875,504.71875)"/>
<path d="M0 0 C0.78697266 -0.02900391 1.57394531 -0.05800781 2.38476562 -0.08789062 C8.23743626 -0.15061504 12.53292258 1.07395016 17.4375 4.3125 C20.50535003 7.47622035 20.70678761 10.49335645 20.9375 14.75 C20.84405957 18.59144004 20.49212269 20.98094222 18.0625 24 C15.4375 26.3125 15.4375 26.3125 13.4375 26.3125 C13.4375 26.9725 13.4375 27.6325 13.4375 28.3125 C11.05311291 29.50469354 9.56093998 29.44166022 6.90234375 29.4453125 C6.01095703 29.44660156 5.11957031 29.44789063 4.20117188 29.44921875 C3.26853516 29.44535156 2.33589844 29.44148437 1.375 29.4375 C0.43849609 29.44136719 -0.49800781 29.44523438 -1.46289062 29.44921875 C-2.35298828 29.44792969 -3.24308594 29.44664062 -4.16015625 29.4453125 C-5.39004272 29.44362061 -5.39004272 29.44362061 -6.64477539 29.44189453 C-8.5625 29.3125 -8.5625 29.3125 -9.5625 28.3125 C-9.66233058 26.32492972 -9.69330753 24.3338248 -9.6953125 22.34375 C-9.69660156 21.13332031 -9.69789063 19.92289063 -9.69921875 18.67578125 C-9.69535156 17.40089844 -9.69148437 16.12601563 -9.6875 14.8125 C-9.69136719 13.53761719 -9.69523438 12.26273438 -9.69921875 10.94921875 C-9.69792969 9.73878906 -9.69664062 8.52835938 -9.6953125 7.28125 C-9.69418457 6.16169922 -9.69305664 5.04214844 -9.69189453 3.88867188 C-9.41555312 -1.61312916 -4.37580803 0.05196922 0 0 Z " fill="#271537" transform="translate(849.5625,503.6875)"/>
<path d="M0 0 C0.99 0 1.98 0 3 0 C3.30292969 0.82242188 3.60585937 1.64484375 3.91796875 2.4921875 C6.31984899 8.89227453 8.86106242 14.99508856 12.1796875 20.9765625 C13 23 13 23 12 26 C5.07 26 -1.86 26 -9 26 C-8 18 -8 18 -7 15 C-6.34 15 -5.68 15 -5 15 C-4.67 12.69 -4.34 10.38 -4 8 C-3.34 8 -2.68 8 -2 8 C-1.855625 6.865625 -1.71125 5.73125 -1.5625 4.5625 C-1 1 -1 1 0 0 Z " fill="#2F1D3E" transform="translate(1145,513)"/>
<path d="M0 0 C0.99 0 1.98 0 3 0 C3.36351562 0.94359375 3.36351562 0.94359375 3.734375 1.90625 C5.62133924 6.72526636 7.5746639 11.33627145 10.16796875 15.8203125 C11 18 11 18 12 26 C5.07 26 -1.86 26 -9 26 C-8.67 23.36 -8.34 20.72 -8 18 C-7.34 18 -6.68 18 -6 18 C-5.67 15.69 -5.34 13.38 -5 11 C-4.34 11 -3.68 11 -3 11 C-2.87625 10.29875 -2.7525 9.5975 -2.625 8.875 C-1.96161655 5.82343613 -1.02788045 2.94659062 0 0 Z " fill="#2D1C3C" transform="translate(767,513)"/>
<path d="M0 0 C3.03969955 0.62023281 4.36252924 1.93676018 6.125 4.43359375 C7.69435594 7.57230563 7.47701103 9.97215197 7.125 13.43359375 C5.0625 16.37109375 5.0625 16.37109375 2.125 18.43359375 C-1.87671543 19.00526738 -4.10264686 18.80298003 -7.75 17.05859375 C-9.875 15.43359375 -9.875 15.43359375 -10.875 13.43359375 C-11.23923273 8.9899544 -11.36784472 6.46213925 -9.4375 2.43359375 C-6.16999086 -0.11665729 -4.06107606 -0.22042025 0 0 Z " fill="#64ACD4" transform="translate(593.875,369.56640625)"/>
<path d="M0 0 C2.3515625 0.48046875 2.3515625 0.48046875 4.9765625 2.54296875 C6.72126083 6.27027881 6.99516413 8.40432508 6.3515625 12.48046875 C5.02223484 15.45228298 4.02804293 16.29558676 1.3515625 18.48046875 C-3.01924644 19.05598452 -6.47469651 18.19616448 -10.2109375 15.91796875 C-12.25786131 12.44709794 -12.36813307 9.34691836 -11.6484375 5.48046875 C-9.11255485 -0.05236612 -5.61654731 -0.30650774 0 0 Z " fill="#69B7DB" transform="translate(575.6484375,113.51953125)"/>
</svg>
